<?xml version="1.0" encoding="utf-8"?>
<!-- Generator: Adobe Illustrator 27.5.0, SVG Export Plug-In . SVG Version: 6.00 Build 0)  -->
<svg version="1.1" id="Layer_1" xmlns="http://www.w3.org/2000/svg" xmlns:xlink="http://www.w3.org/1999/xlink" x="0px" y="0px"
	 viewBox="0 0 48.38 12.45" style="enable-background:new 0 0 48.38 12.45;" xml:space="preserve">
<g>
	<path d="M2.79,8.67c-0.53,1.61-1.11,2.68-1.74,3.22c-0.29,0.25-0.52,0.38-0.72,0.38C0.11,12.27,0,12.21,0,12.1
		c0-0.03,0.03-0.06,0.08-0.08c0.05-0.02,0.08-0.03,0.08-0.03C0.44,11.9,0.72,11.67,1,11.31c0.1-0.13,0.18-0.25,0.24-0.38
		c0.43-0.85,0.79-1.81,1.09-2.9c0.3-1.09,0.69-2.8,1.16-5.12c0.03-0.11,0.08-0.33,0.16-0.66c0.08-0.33,0.14-0.57,0.17-0.72
		c0.04-0.15,0.07-0.29,0.1-0.42c0.03-0.13,0.08-0.22,0.13-0.26c0.06-0.05,0.18-0.07,0.37-0.07C4.54,0.77,4.59,0.82,4.6,0.92
		c0,0.04-0.05,0.26-0.14,0.65c-0.1,0.39-0.32,1.45-0.68,3.19C3.41,6.49,3.08,7.79,2.79,8.67z"/>
	<path d="M6.68,3.36l0.35,0.05c0.05,0,0.11-0.03,0.17-0.09s0.14-0.09,0.23-0.09c0.1,0,0.17,0.03,0.23,0.08
		c0.06,0.05,0.08,0.1,0.08,0.13s-0.02,0.1-0.07,0.19S7.6,3.76,7.59,3.79c-0.5,1.63-0.75,2.68-0.75,3.13c0,0.16,0.04,0.24,0.1,0.24
		c0.24,0,0.61-0.31,1.12-0.94C8.4,5.8,8.61,5.49,8.71,5.29c0.1-0.2,0.18-0.3,0.24-0.31c0.01,0,0.02,0,0.03-0.01
		C9.05,4.98,9.09,5.02,9.09,5.1c0,0.14-0.16,0.46-0.48,0.95C7.92,7.09,7.32,7.62,6.82,7.62c-0.36,0-0.54-0.25-0.54-0.75
		c0-0.25,0.05-0.57,0.15-0.94c0.1-0.37,0.16-0.6,0.18-0.69C6.52,5.36,6.21,5.8,5.69,6.55C5.16,7.3,4.79,7.74,4.58,7.86
		C4.51,7.89,4.45,7.91,4.4,7.92c-0.24,0-0.42-0.09-0.52-0.26C3.83,7.57,3.8,7.45,3.8,7.28c0-0.16,0.12-0.54,0.37-1.12
		c0.4-0.95,0.85-1.67,1.36-2.19C5.93,3.58,6.31,3.37,6.68,3.36z M6.94,3.89C6.32,4,5.78,4.41,5.31,5.12
		C4.86,5.81,4.63,6.49,4.6,7.17C5.49,6,6.27,4.9,6.94,3.89z"/>
	<path d="M10.17,3.07c0.5,0,0.75,0.16,0.75,0.49c-0.02,0.17-0.15,0.52-0.4,1.06s-0.44,0.81-0.56,0.81C9.9,5.42,9.86,5.39,9.85,5.34
		c0-0.03,0.02-0.07,0.06-0.11S9.99,5.11,10.05,5c0.17-0.34,0.26-0.63,0.26-0.87c0-0.23-0.03-0.4-0.1-0.49
		c-0.11,0-0.23,0.11-0.37,0.32C9.58,4.35,9.36,4.87,9.18,5.5S8.9,6.65,8.9,7.02c0,0.07,0,0.13,0.01,0.18
		c0.02,0.27,0.13,0.4,0.33,0.4c0.62,0,1.47-0.54,2.54-1.63c0.21-0.21,0.33-0.26,0.36-0.14c0,0.07-0.04,0.16-0.12,0.29
		c-0.2,0.34-0.52,0.69-0.94,1.06C10.44,7.73,9.9,8,9.45,8c-0.3,0-0.54-0.12-0.71-0.33C8.56,7.45,8.45,7.24,8.4,7.02
		C8.29,6.49,8.35,5.96,8.6,5.42c0.01-0.02,0.05-0.1,0.12-0.25C9.14,4.25,9.52,3.59,9.86,3.2C9.94,3.12,10.05,3.08,10.17,3.07z"/>
	<path d="M14.56,0.59c0.16,0.12,0.25,0.26,0.25,0.42s-0.05,0.29-0.17,0.38c-0.27,0.2-0.48,0.4-0.63,0.59s-0.3,0.49-0.43,0.89
		c-0.13,0.4-0.25,0.72-0.38,0.96c0.04-0.02,0.17-0.06,0.4-0.09c0.23-0.04,0.42-0.06,0.57-0.06c0.38,0,0.57,0.12,0.57,0.36
		c0,0.2-0.15,0.46-0.43,0.8s-0.71,0.69-1.27,1.05c-0.02,0.14-0.04,0.42-0.04,0.84s0.03,0.81,0.1,1.18c0.14,0.8,0.38,1.2,0.7,1.2
		c0.09,0,0.19-0.05,0.3-0.14s0.19-0.13,0.22-0.13s0.08,0.02,0.13,0.05c0.06,0.04,0.09,0.09,0.09,0.17c-0.01,0.27-0.22,0.4-0.63,0.4
		s-0.73-0.17-0.96-0.52c-0.28-0.42-0.47-1.15-0.56-2.19c-0.03-0.35-0.05-0.53-0.07-0.53c-0.02,0.04-0.1,0.27-0.24,0.67
		c-0.15,0.4-0.27,0.6-0.38,0.6c-0.01,0-0.04-0.01-0.07-0.02c-0.13-0.05-0.19-0.12-0.19-0.21s0.03-0.21,0.08-0.35
		c0.06-0.15,0.1-0.26,0.13-0.35s0.15-0.38,0.34-0.89c1.02-2.66,1.79-4.35,2.31-5.06C14.38,0.56,14.46,0.55,14.56,0.59z M14.07,4.32
		c0-0.04-0.03-0.07-0.09-0.07s-0.2,0.04-0.41,0.12s-0.4,0.21-0.58,0.37c-0.09,0.08-0.13,0.21-0.13,0.38
		c0.01,0.09,0.06,0.15,0.14,0.17c0.1,0,0.3-0.14,0.61-0.41S14.08,4.43,14.07,4.32z"/>
	<path d="M17.84,5.96c-0.14,0.41-0.43,0.82-0.86,1.24c-0.51,0.5-0.93,0.75-1.28,0.75c-0.46,0-0.76-0.26-0.87-0.79
		C14.79,7,14.77,6.83,14.77,6.64c0-0.61,0.11-1.31,0.35-2.1c0.29-1.01,0.57-1.51,0.83-1.51c0.13,0,0.22,0.03,0.28,0.09
		s0.09,0.1,0.09,0.13c0,0.12-0.13,0.43-0.38,0.92s-0.41,0.85-0.47,1.07s-0.11,0.51-0.13,0.86S15.3,6.68,15.3,6.78
		c0,0.34,0.04,0.56,0.13,0.64s0.19,0.13,0.31,0.13c0.34,0,0.75-0.3,1.23-0.9c0.23-0.29,0.41-0.56,0.54-0.81
		c0.06-0.09,0.12-0.14,0.18-0.14c0.11,0.02,0.16,0.07,0.18,0.16C17.86,5.89,17.85,5.91,17.84,5.96z M16.44,2.28
		c-0.02-0.01-0.07-0.04-0.15-0.09c-0.09-0.07-0.14-0.12-0.14-0.15c0-0.11,0.15-0.35,0.44-0.74s0.46-0.62,0.5-0.7
		c0.1-0.1,0.23-0.05,0.4,0.15c0.14,0.16,0.18,0.3,0.13,0.4c-0.03,0.1-0.19,0.32-0.5,0.64S16.59,2.28,16.44,2.28z"/>
	<path d="M20.89,5.68c0.2-0.21,0.31-0.25,0.33-0.11c0,0.05-0.03,0.14-0.09,0.25c-0.19,0.36-0.48,0.73-0.87,1.13
		c-0.62,0.63-1.16,0.95-1.63,0.95c-0.22,0-0.42-0.06-0.57-0.19c-0.3-0.25-0.45-0.68-0.45-1.29c0-0.35,0.11-0.83,0.32-1.46
		c0.21-0.63,0.54-1.2,0.98-1.71C19.1,3,19.3,2.87,19.51,2.87c0.09,0,0.19,0.02,0.3,0.06c0.24,0.1,0.36,0.27,0.36,0.51
		c0,0.04-0.01,0.09-0.03,0.17c-0.16,0.32-0.41,0.68-0.76,1.09c-0.35,0.41-0.7,0.74-1.06,0.99c-0.13,0.45-0.19,0.8-0.19,1.06
		s0.01,0.42,0.02,0.48c0.04,0.16,0.17,0.25,0.39,0.25c0.23,0,0.49-0.1,0.78-0.31s0.6-0.48,0.93-0.83s0.52-0.54,0.56-0.58
		C20.85,5.72,20.88,5.69,20.89,5.68z M18.6,4.81c0.08-0.01,0.25-0.18,0.51-0.5c0.26-0.32,0.39-0.58,0.39-0.76
		c0-0.03-0.01-0.06-0.03-0.09c-0.08,0.08-0.24,0.3-0.49,0.67C18.72,4.49,18.6,4.71,18.6,4.81z"/>
	<path d="M24.32,8.67c-0.53,1.61-1.11,2.68-1.74,3.22c-0.29,0.25-0.52,0.38-0.72,0.38c-0.22,0-0.33-0.05-0.33-0.17
		c0-0.03,0.03-0.06,0.08-0.08c0.05-0.02,0.08-0.03,0.08-0.03c0.29-0.09,0.57-0.32,0.84-0.68c0.1-0.13,0.18-0.25,0.24-0.38
		c0.43-0.85,0.79-1.81,1.09-2.9c0.3-1.09,0.69-2.8,1.16-5.12c0.03-0.11,0.08-0.33,0.16-0.66c0.08-0.33,0.14-0.57,0.17-0.72
		c0.04-0.15,0.07-0.29,0.1-0.42c0.03-0.13,0.08-0.22,0.13-0.26c0.06-0.05,0.18-0.07,0.37-0.07c0.11,0.01,0.16,0.06,0.17,0.16
		c0,0.04-0.05,0.26-0.14,0.65c-0.1,0.39-0.32,1.45-0.68,3.19C24.94,6.49,24.61,7.79,24.32,8.67z"/>
	<path d="M27.09,2.84c0.11,0,0.2,0.03,0.28,0.09c0.14,0.12,0.21,0.34,0.21,0.68c0,1.54-0.27,2.69-0.82,3.45l-0.08,0.12
		c-0.34,0.49-0.61,0.74-0.82,0.74c-0.25-0.03-0.4-0.21-0.44-0.56c0-0.29,0.12-0.86,0.35-1.73s0.5-1.62,0.8-2.26
		C26.74,3.03,26.91,2.85,27.09,2.84z M27.18,3.57c-0.2,0.03-0.45,0.52-0.76,1.46s-0.46,1.5-0.46,1.68s0.02,0.26,0.05,0.26
		c0.16,0,0.42-0.35,0.77-1.06s0.52-1.35,0.52-1.94C27.3,3.71,27.26,3.58,27.18,3.57z"/>
	<path d="M29.36,4.2c0,0,0.08-0.09,0.22-0.27c0.14-0.17,0.25-0.29,0.3-0.35L30,3.47c0.08-0.07,0.2-0.11,0.35-0.11
		s0.24,0.08,0.25,0.24c0,0.04-0.03,0.14-0.08,0.29c-0.05,0.15-0.13,0.43-0.22,0.83C30.06,5.7,29.94,6.5,29.94,7.1
		c0,0.25,0.04,0.37,0.11,0.38c0.12,0,0.31-0.15,0.56-0.46c0.23-0.28,0.59-0.91,1.09-1.91c0.07-0.13,0.16-0.19,0.26-0.19
		c0.05,0.01,0.08,0.05,0.09,0.13c0,0.2-0.05,0.43-0.16,0.69c-0.2,0.51-0.5,0.99-0.9,1.44S30.25,7.85,30,7.85
		c-0.38,0-0.57-0.31-0.58-0.93c0-0.51,0.08-1.23,0.25-2.16C29.42,4.84,29.19,5.04,29,5.35c-0.2,0.31-0.4,0.77-0.61,1.36
		c-0.22,0.61-0.37,0.96-0.45,1.04c-0.09,0.07-0.2,0.1-0.31,0.1s-0.17-0.04-0.18-0.13s0.2-0.67,0.6-1.75s0.87-2.21,1.38-3.36
		s0.81-1.91,0.88-2.27c0.03-0.11,0.13-0.17,0.3-0.17c0.06,0,0.12,0.01,0.18,0.02c0.16,0.04,0.25,0.12,0.25,0.23
		c0,0.04-0.01,0.08-0.04,0.13l-0.08,0.14C30.62,1.22,30.1,2.39,29.36,4.2z"/>
	<path d="M35.65,5.49c0,0.2-0.22,0.55-0.67,1.08s-0.78,0.87-1,1.03s-0.44,0.25-0.67,0.25c-0.41,0-0.62-0.33-0.62-0.98
		c0-0.31,0.06-0.79,0.19-1.45s0.19-1.02,0.2-1.08C32.67,4.48,32.27,5,31.89,5.9c-0.08,0.19-0.2,0.52-0.38,0.98
		c-0.17,0.46-0.29,0.73-0.36,0.81c-0.09,0.1-0.2,0.15-0.34,0.15S30.6,7.8,30.6,7.7c0-0.19,0.63-1.74,1.88-4.66
		c0.2-0.46,0.31-0.72,0.34-0.77c0.07-0.13,0.21-0.12,0.42,0.02c0.06,0.04,0.09,0.09,0.1,0.13s-0.03,0.11-0.09,0.21
		C33.1,2.84,32.97,3.1,32.86,3.4l-0.22,0.58l0.19-0.23c0.17-0.21,0.3-0.36,0.4-0.47s0.19-0.17,0.25-0.18s0.14-0.02,0.21-0.02
		c0.16,0.01,0.24,0.1,0.25,0.26c0,0.08-0.03,0.18-0.08,0.32c-0.25,0.57-0.44,1.42-0.57,2.57c-0.04,0.33-0.05,0.62-0.05,0.86
		s0.06,0.37,0.18,0.38c0.16,0,0.46-0.25,0.9-0.76s0.75-0.93,0.94-1.27c0.05-0.08,0.12-0.12,0.22-0.13
		C35.57,5.33,35.63,5.39,35.65,5.49z"/>
	<path d="M37.25,3.58c0,0.57-0.16,0.87-0.47,0.88c-0.08,0-0.15-0.02-0.22-0.07c0.03,0.69,0.05,1.36,0.05,2.01s-0.12,1.12-0.37,1.4
		c-0.14,0.16-0.32,0.24-0.54,0.24c-0.22,0-0.38-0.07-0.5-0.23c-0.11-0.15-0.17-0.31-0.17-0.45c0.01-0.18,0.13-0.28,0.36-0.28
		c0.15,0,0.21,0.1,0.19,0.29s0.03,0.29,0.16,0.29c0.2,0,0.32-0.27,0.37-0.8c0.02-0.25,0.03-0.59,0.03-1.02s-0.04-0.66-0.11-0.66
		C36,5.18,35.95,5.23,35.89,5.33c-0.06,0.1-0.19,0.31-0.4,0.64c-0.2,0.32-0.38,0.56-0.53,0.71c-0.15,0.15-0.25,0.23-0.3,0.25
		c-0.11,0.04-0.17,0-0.19-0.1c0-0.11,0.06-0.25,0.18-0.4c0.42-0.56,0.83-1.2,1.22-1.93c0.12-0.18,0.19-0.28,0.19-0.31V3.35
		c0-0.16,0.07-0.28,0.22-0.36c0.06-0.03,0.12-0.05,0.18-0.05c0.23,0,0.44,0.07,0.64,0.21c0.09,0.07,0.14,0.15,0.14,0.23
		C37.25,3.47,37.25,3.53,37.25,3.58z M36.51,3.97c0.14-0.02,0.21-0.07,0.24-0.14c0.02-0.07,0.03-0.14,0.03-0.2s0-0.12-0.01-0.16
		c-0.12,0-0.2,0.08-0.24,0.25c-0.02,0.05-0.02,0.11-0.02,0.15S36.51,3.95,36.51,3.97z"/>
	<path d="M39.32,3.15l2.12-0.05c0.04,0,0.09,0.04,0.14,0.12c0.05,0.08,0.08,0.18,0.08,0.31c0,0.09-0.12,0.13-0.34,0.14
		c-0.65,0.02-1.43,0.1-2.32,0.25c-0.07,0.19-0.18,0.46-0.33,0.82c-0.65,1.58-0.98,2.69-1.01,3.33c0,0.32,0.06,0.62,0.18,0.91
		c0.21,0.49,0.53,0.74,0.95,0.74c0.33,0,0.6-0.08,0.82-0.25c0.22-0.17,0.48-0.44,0.79-0.82c0.09-0.12,0.19-0.16,0.29-0.13
		c0.1,0.04,0.15,0.13,0.15,0.25c0,0.36-0.21,0.66-0.62,0.9s-0.86,0.36-1.33,0.36s-0.88-0.17-1.23-0.52
		c-0.35-0.35-0.52-0.81-0.52-1.39c0-0.39,0.05-0.8,0.15-1.25s0.27-0.99,0.53-1.65c0.26-0.66,0.43-1.1,0.51-1.31
		c-0.82,0-1.27-0.01-1.37-0.03c-0.29-0.06-0.44-0.18-0.44-0.36c0-0.06,0.05-0.09,0.13-0.11l1.91-0.17l1.26-2.11
		c0.15-0.24,0.28-0.36,0.39-0.36c0.05,0,0.1,0.01,0.16,0.02c0.23,0.05,0.35,0.13,0.35,0.25c0,0.11-0.12,0.29-0.35,0.53
		c-0.23,0.24-0.38,0.39-0.43,0.46C39.73,2.24,39.53,2.62,39.32,3.15z"/>
	<path d="M42.57,3.3c0.2,0,0.47-0.05,0.81-0.16s0.57-0.16,0.7-0.14C44.22,3,44.3,3.05,44.35,3.15c0.04,0.09,0.04,0.18-0.02,0.27
		s-0.18,0.14-0.38,0.15h-0.92c-0.19,0-0.31,0.06-0.36,0.18c-0.01,0.01-0.04,0.21-0.11,0.6s-0.1,0.62-0.11,0.67
		c-0.19,0.93-0.46,1.65-0.8,2.14l-0.01,0.01c-0.35,0.51-0.63,0.76-0.84,0.76c-0.26-0.01-0.4-0.19-0.42-0.53
		c0.02-0.44,0.21-1.21,0.57-2.31s0.66-1.81,0.9-2.13c0.07-0.09,0.14-0.13,0.23-0.13s0.14,0,0.16,0.01c0.08,0.02,0.12,0.1,0.12,0.24
		C42.37,3.22,42.44,3.29,42.57,3.3z M42.16,3.57c-0.16,0-0.4,0.49-0.71,1.47c-0.31,0.98-0.47,1.54-0.48,1.68
		c-0.01,0.14,0.01,0.21,0.04,0.21c0.14,0,0.39-0.35,0.75-1.06c0.36-0.71,0.53-1.31,0.53-1.82C42.27,3.76,42.23,3.59,42.16,3.57z"/>
	<path d="M47.36,5.49c0,0.2-0.22,0.55-0.67,1.08s-0.78,0.87-1,1.03s-0.44,0.25-0.67,0.25c-0.41,0-0.62-0.33-0.62-0.98
		c0-0.31,0.06-0.79,0.19-1.45s0.19-1.02,0.2-1.08C44.38,4.48,43.98,5,43.6,5.9c-0.08,0.19-0.2,0.52-0.38,0.98
		c-0.17,0.46-0.29,0.73-0.36,0.81c-0.09,0.1-0.2,0.15-0.34,0.15S42.32,7.8,42.31,7.7c0-0.19,0.63-1.74,1.88-4.66
		c0.2-0.46,0.31-0.72,0.34-0.77c0.07-0.13,0.21-0.12,0.42,0.02c0.06,0.04,0.09,0.09,0.1,0.13s-0.03,0.11-0.09,0.21
		c-0.14,0.23-0.27,0.49-0.39,0.79l-0.22,0.58l0.19-0.23c0.17-0.21,0.3-0.36,0.4-0.47s0.19-0.17,0.25-0.18s0.14-0.02,0.21-0.02
		c0.16,0.01,0.24,0.1,0.25,0.26c0,0.08-0.03,0.18-0.08,0.32c-0.25,0.57-0.44,1.42-0.57,2.57c-0.04,0.33-0.05,0.62-0.05,0.86
		s0.06,0.37,0.18,0.38c0.16,0,0.46-0.25,0.9-0.76s0.75-0.93,0.94-1.27c0.05-0.08,0.12-0.12,0.22-0.13
		C47.29,5.33,47.34,5.39,47.36,5.49z"/>
</g>
<g>
	<path d="M41.56,11.39l0.74-2.85h0.47l0.74,2.85h-0.35l-0.19-0.76H42.1l-0.19,0.76H41.56z M42.17,10.34h0.72l-0.22-0.88
		c-0.04-0.17-0.07-0.31-0.1-0.42s-0.04-0.19-0.04-0.22c0,0.03-0.02,0.11-0.04,0.22s-0.06,0.25-0.1,0.41L42.17,10.34z"/>
	<path d="M44.06,11.39V8.54h0.88c0.17,0,0.32,0.03,0.44,0.1c0.13,0.07,0.23,0.16,0.3,0.29c0.07,0.12,0.11,0.27,0.11,0.43
		c0,0.19-0.05,0.36-0.15,0.5c-0.1,0.14-0.24,0.23-0.41,0.28l0.6,1.25h-0.41l-0.55-1.21h-0.46v1.21H44.06z M44.41,9.87h0.53
		c0.15,0,0.26-0.05,0.35-0.14s0.13-0.21,0.13-0.36c0-0.15-0.04-0.28-0.13-0.37c-0.09-0.09-0.21-0.14-0.35-0.14h-0.53V9.87z"/>
	<path d="M47.04,11.39V8.86h-0.78V8.54h1.91v0.32h-0.78v2.53H47.04z"/>
</g>
<g>
</g>
<g>
</g>
<g>
</g>
<g>
</g>
<g>
</g>
<g>
</g>
<g>
</g>
<g>
</g>
<g>
</g>
<g>
</g>
<g>
</g>
<g>
</g>
<g>
</g>
<g>
</g>
<g>
</g>
</svg>
