<?xml version="1.0" standalone="no"?>
<!DOCTYPE svg PUBLIC "-//W3C//DTD SVG 20010904//EN"
 "http://www.w3.org/TR/2001/REC-SVG-20010904/DTD/svg10.dtd">
<svg version="1.0" xmlns="http://www.w3.org/2000/svg"
 width="429.000000pt" height="429.000000pt" viewBox="0 0 429.000000 429.000000"
 preserveAspectRatio="xMidYMid meet">
<metadata>
Created by potrace 1.14, written by Peter Selinger 2001-2017
</metadata>
<g transform="translate(0.000000,429.000000) scale(0.100000,-0.100000)"
fill="#000000" stroke="none">
<path d="M0 2145 l0 -2145 2145 0 2145 0 0 2145 0 2145 -2145 0 -2145 0 0
-2145z m2118 1620 c16 -34 16 -88 0 -83 -6 2 -16 18 -22 36 -16 45 -30 56 -46
37 -11 -13 -11 -16 0 -13 9 2 15 -8 16 -25 2 -16 7 -34 13 -41 5 -6 11 -31 12
-55 4 -51 14 -60 38 -32 l19 21 15 -38 c9 -21 18 -56 22 -78 4 -21 13 -52 20
-69 7 -16 16 -47 20 -68 4 -20 11 -40 16 -43 5 -3 9 -18 9 -34 0 -16 5 -32 10
-35 6 -3 10 -12 10 -18 -1 -22 -50 48 -50 71 0 12 -9 40 -20 62 -11 22 -20 47
-20 57 0 18 -35 121 -44 131 -8 7 -36 -6 -36 -18 0 -5 5 -10 10 -10 6 0 10 -8
10 -18 0 -10 3 -22 6 -25 4 -4 22 -51 40 -104 52 -155 81 -233 88 -240 3 -4 6
-14 6 -23 0 -10 8 -28 18 -41 25 -34 56 -133 49 -159 -4 -16 -2 -20 9 -16 8 3
13 2 10 -3 -3 -5 0 -23 8 -41 10 -25 14 -29 19 -15 4 9 2 25 -4 37 -6 11 -8
27 -4 36 8 22 26 1 53 -65 29 -69 28 -77 -13 -109 -19 -14 -35 -35 -35 -45 0
-20 -15 -25 -25 -9 -4 6 -11 8 -16 4 -6 -4 -6 -11 2 -20 15 -18 -12 -51 -57
-70 -17 -7 -36 -20 -44 -28 -18 -23 -40 -20 -40 6 0 21 0 21 -27 -4 -16 -14
-38 -29 -51 -33 -16 -5 -21 -12 -17 -25 4 -12 -5 -32 -27 -57 -18 -21 -33 -39
-34 -41 -1 -2 -14 0 -28 4 -30 7 -30 28 0 30 44 2 54 5 54 14 0 20 -29 22 -64
5 -34 -16 -37 -16 -81 6 -25 12 -46 27 -47 33 0 6 -2 29 -2 50 -1 23 -6 41
-15 44 -10 3 -12 -3 -6 -27 9 -42 -8 -40 -34 4 -11 19 -25 35 -30 35 -5 0 -12
14 -16 30 -9 41 -28 38 -23 -4 l4 -34 -24 19 c-33 26 -39 24 -39 -11 0 -16 4
-30 9 -30 4 0 8 5 8 11 0 6 6 9 13 6 6 -2 12 -14 12 -28 0 -18 13 -30 56 -55
31 -17 68 -34 82 -38 30 -7 131 -86 130 -101 0 -5 -11 -15 -24 -22 -13 -7 -26
-19 -29 -28 -5 -14 -9 -13 -35 7 -21 16 -30 19 -33 9 -3 -9 -11 -6 -27 9 -20
19 -94 45 -103 36 -1 -2 14 -12 35 -23 78 -40 111 -65 137 -102 33 -47 27 -71
-19 -71 -20 0 -35 -6 -38 -15 -4 -9 -14 -12 -29 -9 -13 3 -50 7 -83 10 -64 4
-56 -4 25 -26 25 -7 51 -14 58 -16 8 -2 10 -12 6 -30 -6 -25 -5 -26 19 -20 36
9 59 -17 55 -63 -3 -38 0 -36 -70 -40 -13 -1 -16 -8 -11 -35 3 -19 1 -36 -5
-40 -6 -4 -9 -13 -6 -20 13 -34 -166 -29 -201 5 -17 17 -18 19 -2 19 9 0 17
-4 17 -10 0 -21 56 -9 90 20 31 27 33 30 13 30 -12 0 -29 -7 -37 -15 -13 -13
-22 -14 -53 -5 -21 7 -54 10 -73 8 -27 -2 -36 -8 -38 -25 -2 -13 1 -23 7 -23
6 0 11 5 11 12 0 17 16 -2 25 -29 5 -18 3 -22 -9 -17 -9 3 -16 1 -16 -5 0 -21
-31 -24 -45 -5 -13 18 -14 18 -32 1 -11 -9 -27 -17 -36 -17 -9 0 -18 -4 -21
-9 -11 -16 -256 -43 -273 -29 -9 7 -18 5 -30 -9 -20 -22 -91 -42 -174 -48 -30
-2 -56 -5 -59 -6 -3 -1 -8 -1 -12 0 -4 0 -25 -5 -45 -13 -21 -8 -82 -21 -136
-30 -54 -9 -110 -22 -125 -30 -15 -7 -51 -19 -81 -25 -30 -6 -61 -16 -68 -22
-7 -6 -24 -8 -37 -5 -14 3 -37 1 -51 -6 -18 -8 -29 -9 -33 -1 -4 5 -17 15 -29
22 -13 6 -23 16 -23 21 0 6 10 10 23 10 28 0 54 16 44 27 -5 4 -35 6 -68 5
-35 -2 -59 1 -59 7 0 15 22 26 47 23 12 -2 30 1 40 7 16 9 16 10 -4 11 -12 0
-25 5 -28 10 -4 6 -13 7 -24 1 -15 -8 -19 -3 -27 40 -8 38 -8 49 2 49 18 0 28
20 16 32 -18 18 -1 90 27 115 28 24 108 32 127 13 7 -7 20 -6 40 4 41 21 238
33 259 16 13 -10 18 -10 33 2 24 20 103 48 132 47 14 0 77 2 140 6 63 4 122 7
130 6 68 -4 174 -1 181 6 13 13 -13 63 -33 63 -9 0 -23 -6 -30 -14 -18 -18
-45 1 -40 28 3 16 0 18 -22 12 -19 -5 -26 -3 -26 8 0 18 -36 40 -44 27 -3 -5
4 -11 16 -15 17 -4 20 -8 12 -16 -8 -8 -22 -5 -49 10 -25 14 -47 19 -65 15
-22 -5 -30 -1 -44 20 -21 32 -36 32 -36 1 0 -27 9 -31 81 -41 63 -9 77 -19 59
-40 -10 -12 -24 -15 -46 -12 -18 3 -34 2 -36 -3 -2 -5 -18 -2 -35 7 -20 9 -40
12 -50 8 -29 -13 -47 -14 -58 -6 -11 9 -79 6 -96 -5 -6 -3 -18 1 -28 10 -17
15 -19 15 -25 1 -4 -12 -10 -14 -25 -5 -11 5 -31 10 -45 10 -16 0 -26 6 -26
15 0 18 -16 20 -26 4 -4 -8 -28 -10 -68 -6 -34 3 -70 2 -81 -3 -11 -4 -35 -3
-52 2 -20 5 -40 5 -50 -1 -13 -6 -24 -4 -41 9 -20 17 -21 20 -6 35 9 9 13 19
10 22 -8 8 -109 23 -149 23 -16 0 -26 4 -23 8 3 5 23 8 45 6 54 -5 109 20 122
54 5 15 14 36 19 47 5 11 12 61 15 112 7 127 4 123 87 123 73 0 109 -13 158
-57 22 -19 43 -26 86 -30 32 -2 64 -8 70 -14 7 -6 56 -19 109 -29 53 -11 104
-24 113 -29 9 -4 40 -14 69 -20 28 -7 54 -19 57 -27 3 -8 19 -14 35 -14 16 0
32 -4 35 -9 3 -5 23 -11 43 -14 128 -19 162 -26 198 -40 44 -16 264 -41 288
-31 8 3 39 1 69 -4 57 -11 121 -5 112 9 -3 5 -14 9 -25 9 -10 0 -19 5 -19 11
0 8 -4 8 -14 0 -10 -8 -24 -6 -60 9 -44 20 -57 35 -36 42 6 2 11 17 13 34 1
20 6 30 15 27 6 -3 12 0 12 6 0 6 -9 11 -20 11 -12 0 -20 -6 -18 -12 1 -7 -3
-23 -10 -35 -17 -30 -85 -32 -122 -3 -14 11 -38 20 -55 20 -36 0 -60 14 -51
29 12 18 -13 51 -39 51 -13 0 -37 11 -53 25 -17 14 -35 25 -41 25 -5 0 -19 10
-30 22 -19 20 -22 20 -39 5 -22 -20 -32 -21 -32 -4 0 9 -11 12 -35 9 -34 -4
-95 13 -95 27 0 4 16 14 35 21 41 16 61 35 46 44 -5 4 -12 2 -15 -3 -3 -5 -15
-7 -26 -4 -11 3 -20 0 -20 -6 0 -6 -6 -11 -13 -11 -7 0 -21 -9 -31 -21 -14
-17 -24 -20 -49 -14 -18 3 -49 9 -70 12 -31 5 -36 9 -32 24 6 17 3 18 -18 10
-17 -7 -30 -6 -43 3 -11 7 -46 18 -78 24 -65 13 -146 55 -146 76 0 7 -9 21
-20 31 -12 11 -20 13 -20 6 0 -6 7 -14 15 -17 20 -8 12 -19 -28 -39 l-32 -16
-37 41 c-20 22 -45 41 -55 42 -10 0 -22 2 -28 3 -5 2 -15 3 -21 4 -19 2 -64
42 -58 52 3 5 12 2 20 -6 21 -21 25 -20 64 18 19 19 43 36 52 40 10 3 18 11
18 16 0 15 -18 23 -25 11 -3 -5 -17 -10 -31 -10 -13 0 -24 -4 -24 -10 0 -5 5
-10 12 -10 8 0 9 -3 1 -11 -5 -5 -34 -12 -62 -15 -47 -4 -52 -3 -49 13 2 10
11 17 21 17 11 -1 17 6 17 21 0 12 9 30 20 40 11 10 20 27 20 37 0 31 30 33
83 5 57 -30 82 -24 93 21 4 15 11 32 16 39 13 17 1 33 -38 49 -31 13 -33 17
-27 47 3 17 7 33 8 35 3 4 58 -26 98 -52 15 -10 27 -25 27 -32 0 -19 24 -18
40 1 10 13 10 20 1 39 -11 19 -9 28 9 59 24 40 37 46 46 22 5 -12 15 -14 39
-9 30 5 43 -1 120 -60 47 -37 93 -70 103 -73 9 -4 25 -17 35 -30 10 -13 26
-23 34 -23 18 0 53 -28 53 -42 0 -4 -8 -8 -17 -8 -15 0 -16 -2 -3 -10 9 -6 18
-6 24 0 19 19 54 10 80 -21 14 -17 30 -27 36 -24 5 3 10 2 10 -4 0 -9 37 -31
118 -70 33 -16 42 -26 42 -46 0 -16 6 -25 16 -25 14 0 14 3 4 15 -20 24 18 19
57 -7 24 -17 32 -30 30 -47 -1 -17 5 -26 22 -32 20 -8 22 -7 12 5 -33 40 37
21 127 -34 26 -16 37 -18 53 -10 11 6 24 8 29 5 6 -3 10 -1 10 4 0 6 -7 11
-15 11 -7 0 -19 8 -24 18 -10 16 -12 16 -24 0 -13 -16 -18 -15 -67 20 -76 53
-144 116 -131 120 6 2 11 15 11 29 0 20 -4 24 -17 18 -43 -17 -52 -16 -68 8
-10 15 -22 24 -31 20 -11 -4 -34 30 -34 52 0 1 14 2 31 1 18 0 34 5 36 12 3 7
-3 12 -14 12 -11 0 -24 5 -31 12 -9 9 -18 9 -38 -1 -30 -13 -47 -1 -37 26 7
19 -18 16 -33 -4 -12 -17 -14 -15 -26 15 -11 30 -24 37 -55 33 -7 -1 -13 2
-13 7 0 4 -6 16 -12 25 -11 14 -19 15 -48 7 -32 -8 -33 -8 -16 5 11 8 23 15
28 15 25 0 1 24 -42 43 -28 12 -53 30 -56 40 -6 20 -25 22 -42 5 -10 -10 -19
-5 -43 21 -16 19 -28 40 -25 47 3 8 1 25 -4 39 -11 29 -43 33 -67 9 -14 -14
-17 -14 -31 0 -12 12 -13 18 -3 30 15 18 -5 34 -22 17 -14 -14 -44 -14 -53 0
-16 26 79 42 104 17 9 -9 12 -8 12 8 0 11 -5 25 -12 32 -16 16 31 34 100 38
42 3 63 11 102 39 51 37 69 42 88 23 8 -8 15 -8 28 3 15 12 18 11 28 -6 6 -11
50 -60 98 -110 52 -55 93 -107 103 -132 10 -24 21 -43 27 -43 5 0 6 5 2 12
-14 23 65 -44 118 -100 30 -31 115 -113 189 -182 73 -69 150 -142 170 -164 20
-21 41 -36 47 -32 6 4 14 1 19 -6 4 -7 20 -24 36 -37 21 -19 30 -22 39 -13 7
7 21 12 31 12 18 0 17 -2 -3 -18 -13 -11 -20 -24 -16 -30 12 -20 32 -14 44 13
6 14 18 25 27 25 19 0 20 -26 0 -34 -18 -7 -20 -26 -2 -26 22 0 38 39 31 76
-7 39 -19 50 -37 35 -15 -12 -31 -3 -40 21 -3 9 -16 18 -29 20 -16 2 -24 11
-26 29 -2 16 -12 31 -28 37 -26 13 -32 2 -11 -20 8 -7 12 -18 10 -25 -2 -6 15
-23 38 -37 l43 -25 -28 -10 c-35 -14 -36 -14 -36 3 0 8 -12 29 -26 46 -15 17
-27 45 -28 61 -1 23 -5 28 -19 23 -11 -3 -19 1 -23 13 -3 10 -14 35 -25 56
-14 30 -16 43 -8 59 6 11 17 17 25 14 8 -3 14 -1 14 4 0 6 -11 10 -25 10 -43
0 -94 27 -105 55 -6 15 -19 29 -29 32 -28 7 -77 82 -84 127 -8 48 -26 69 -64
70 -23 1 -27 5 -25 24 3 23 -12 45 -90 136 -40 45 -45 65 -27 94 9 14 8 26 -6
51 -9 18 -14 36 -10 39 6 7 233 31 328 35 42 2 50 -1 62 -23 7 -14 57 -114
111 -222 53 -109 101 -198 106 -198 4 0 8 -5 8 -11 0 -6 10 -25 22 -41 21 -30
21 -31 2 -45 -17 -14 -16 -15 23 -11 37 3 43 0 53 -22 12 -24 12 -24 -9 -6
-19 17 -21 17 -21 3 0 -10 -7 -17 -15 -17 -8 0 -15 -7 -15 -16 0 -13 7 -15 35
-11 32 5 37 3 47 -21 5 -15 19 -47 29 -72 10 -25 21 -60 24 -78 6 -28 4 -34
-13 -39 -12 -3 -23 -11 -26 -18 -2 -7 -21 -15 -40 -19 -21 -4 -36 -13 -36 -21
0 -12 5 -13 28 -3 15 7 32 16 38 20 7 5 25 8 41 6 34 -2 56 9 46 25 -4 6 -6
26 -5 45 2 21 -5 42 -18 59 -11 14 -20 36 -20 49 0 12 -4 25 -9 28 -5 3 -12
18 -16 33 -3 16 -26 84 -51 152 -24 68 -44 131 -44 141 0 18 -35 53 -62 63
-10 4 -18 15 -18 26 0 11 -4 23 -10 26 -17 10 -12 75 5 75 23 0 19 53 -5 68
-11 7 -20 22 -20 35 0 13 -5 28 -10 33 -19 19 0 43 31 42 16 -1 32 2 36 5 13
14 30 6 41 -18z m394 -25 c28 -17 51 -20 140 -20 59 0 109 -4 113 -9 3 -5 -1
-29 -9 -53 -8 -24 -17 -61 -21 -83 -4 -22 -14 -48 -22 -58 -14 -14 -14 -21 -3
-41 10 -19 10 -32 1 -57 -6 -17 -11 -48 -11 -68 0 -20 -7 -46 -15 -59 -9 -12
-16 -41 -15 -64 1 -66 -11 -136 -26 -149 -19 -16 -18 -36 3 -48 15 -8 15 -13
4 -37 -11 -24 -10 -30 3 -40 26 -19 18 -40 -29 -82 -25 -22 -45 -46 -45 -55 0
-12 -7 -13 -41 -6 -22 5 -44 7 -50 4 -13 -9 -11 -59 3 -73 9 -9 7 -13 -6 -18
-29 -11 -39 9 -27 52 6 22 11 56 11 77 0 40 22 52 35 20 6 -17 7 -17 20 0 17
23 -1 114 -19 96 -3 -3 -1 -21 4 -42 8 -36 7 -37 -13 -31 -34 9 -49 35 -43 72
5 31 -7 45 -17 20 -3 -9 -7 -6 -12 6 -5 10 -3 32 2 47 13 33 7 65 -13 73 -8 3
-14 13 -14 23 0 16 1 16 13 -1 11 -15 15 -15 24 -4 16 19 28 82 14 74 -6 -4
-11 -16 -11 -27 0 -14 -5 -19 -17 -17 -12 2 -18 12 -17 28 1 14 -5 28 -12 33
-19 11 -6 37 20 37 20 1 20 1 3 14 -24 19 -60 90 -47 94 15 5 12 55 -6 80 -15
22 -15 24 5 29 12 3 21 9 21 13 0 13 -29 32 -40 25 -6 -4 -10 4 -10 18 0 29
10 40 25 27 9 -7 11 10 8 68 -2 42 -5 82 -7 89 -5 12 46 32 106 42 4 0 22 -8
40 -19z m506 -19 c46 -23 90 -35 120 -32 16 2 22 -3 22 -18 0 -23 -47 -148
-64 -170 -6 -8 -12 -26 -12 -40 -1 -25 -17 -77 -35 -113 -4 -9 -15 -45 -24
-80 -9 -34 -22 -80 -30 -101 -8 -20 -15 -63 -15 -95 0 -56 -2 -62 -55 -138
-18 -27 -54 -64 -61 -64 -2 0 -12 10 -24 22 -19 21 -20 21 -34 3 -11 -16 -11
-21 0 -33 8 -7 14 -17 14 -22 0 -9 -78 -25 -86 -18 -2 3 1 19 7 37 13 38 8 48
-15 25 -21 -21 -31 -12 -17 14 6 12 11 30 11 41 0 12 4 29 9 39 23 46 53 166
67 270 14 113 34 177 42 140 2 -10 8 -18 14 -18 6 0 8 10 3 28 -16 60 -4 162
20 162 15 0 31 37 20 48 -3 4 -10 0 -15 -8 -7 -11 -12 -12 -20 -4 -13 13 7 54
26 54 13 0 28 30 19 38 -2 3 -11 -1 -20 -8 -21 -18 -26 -9 -12 20 9 18 23 27
52 31 22 3 44 7 48 8 4 0 24 -7 45 -18z m-998 -62 c0 -11 -27 -12 -34 0 -3 4
-3 11 0 14 8 8 34 -3 34 -14z m-671 -25 c-9 -11 -15 -12 -26 -3 -17 14 1 31
24 22 10 -4 11 -9 2 -19z m84 1 l18 -25 -30 0 c-16 0 -33 -4 -36 -10 -3 -5
-12 -10 -18 -10 -7 0 -2 8 11 18 15 12 21 24 16 35 -10 26 18 20 39 -8z m715
3 c2 -9 -4 -18 -13 -21 -11 -5 -15 0 -15 19 0 28 23 29 28 2z m692 -29 c0 -5
-7 -9 -15 -9 -15 0 -20 12 -9 23 8 8 24 -1 24 -14z m768 -122 c57 -14 92 -27
92 -35 0 -7 -18 -32 -40 -56 -22 -24 -40 -49 -40 -55 0 -12 -28 -45 -97 -112
-23 -23 -70 -74 -103 -115 -54 -64 -64 -72 -81 -61 -28 18 -35 0 -8 -23 l24
-20 -21 -17 c-11 -10 -29 -31 -39 -48 -18 -30 -39 -56 -85 -104 -92 -97 -130
-148 -130 -174 0 -27 36 -87 52 -87 16 0 8 30 -12 42 -26 16 -25 33 1 52 16
11 26 12 39 4 25 -16 47 -4 63 34 16 37 69 95 101 109 12 5 28 13 36 19 8 5
28 15 43 20 16 6 31 20 34 31 5 17 12 20 39 17 29 -3 34 -1 34 17 0 29 14 47
33 40 10 -4 20 1 27 14 6 12 20 21 30 21 11 0 20 3 20 8 0 18 90 102 116 108
16 4 55 30 86 58 32 27 74 56 93 64 l36 15 45 -44 c24 -24 44 -51 44 -62 0
-10 7 -32 16 -48 17 -33 13 -59 -9 -59 -7 0 -24 -11 -37 -25 -12 -13 -26 -22
-30 -20 -4 2 -16 -2 -26 -10 -18 -14 -18 -15 6 -12 16 1 25 -4 28 -15 3 -14
-3 -18 -22 -18 -14 0 -26 5 -26 11 0 6 -10 9 -22 7 -16 -2 -22 -9 -20 -22 3
-15 -1 -17 -20 -13 -26 7 -53 -6 -53 -25 0 -7 -12 -14 -27 -16 -29 -3 -40 -22
-13 -22 37 0 5 -36 -38 -44 -24 -4 -46 -19 -117 -78 -8 -7 -29 -15 -45 -17
-40 -4 -45 -8 -45 -37 0 -13 -3 -23 -7 -22 -12 4 -53 -35 -69 -64 -20 -39 -31
-35 -26 10 3 21 1 33 -4 29 -5 -5 -9 -12 -9 -15 -1 -4 -14 -32 -29 -62 -26
-50 -30 -53 -37 -32 -5 12 -15 22 -24 22 -8 0 -18 1 -22 1 -5 1 -14 -9 -20
-22 -12 -22 -13 -22 -13 -4 0 21 -17 45 -31 45 -4 0 -16 -18 -28 -40 -18 -35
-19 -41 -6 -46 25 -10 17 -32 -12 -36 -27 -3 -28 -4 -29 -73 0 -38 -8 -96 -17
-128 -9 -32 -17 -67 -17 -77 0 -10 -6 -23 -14 -27 -7 -4 -21 -23 -31 -42 -9
-19 -32 -48 -50 -65 -20 -19 -35 -43 -37 -60 -2 -24 -9 -31 -35 -38 -30 -8
-51 -37 -39 -56 3 -5 -10 -16 -29 -25 -26 -12 -35 -24 -41 -52 -5 -28 -11 -35
-29 -35 -12 0 -29 -10 -37 -22 -13 -20 -17 -21 -32 -9 -14 12 -19 11 -35 -3
-12 -11 -17 -25 -13 -38 4 -18 3 -19 -18 -8 -17 9 -29 9 -47 1 -13 -6 -32 -11
-41 -11 -10 0 -25 -9 -35 -20 -21 -25 -22 -37 -2 -20 21 18 28 7 20 -29 -6
-29 -10 -31 -50 -31 -24 0 -45 -5 -47 -11 -3 -9 -10 -9 -26 0 -13 7 -20 16
-17 22 8 12 35 12 35 -1 0 -5 7 -7 15 -4 19 8 20 50 1 57 -7 3 -19 0 -25 -6
-8 -8 -11 1 -11 34 0 71 12 120 29 126 9 3 35 14 58 24 23 11 46 19 50 19 4 0
17 13 28 29 19 29 63 57 73 46 10 -9 32 17 32 39 0 11 13 35 30 53 33 35 64
84 81 126 6 15 14 27 19 27 4 0 13 15 20 33 24 60 62 142 75 157 6 8 21 56 33
106 18 74 20 96 11 123 -8 24 -16 31 -29 28 -13 -3 -16 0 -13 14 7 27 -9 23
-48 -11 -19 -16 -44 -30 -56 -30 -13 0 -23 -4 -23 -10 0 -5 10 -11 23 -11 12
-1 -5 -6 -37 -11 -64 -10 -81 -1 -70 35 5 15 1 18 -23 15 -23 -2 -27 -7 -25
-25 3 -20 -1 -23 -28 -23 -16 0 -39 5 -49 11 -25 17 -100 -17 -107 -48 -4 -13
-10 -21 -14 -18 -4 3 -14 -3 -21 -12 -10 -12 -10 -14 -1 -9 6 4 12 2 12 -3 0
-6 -11 -11 -25 -11 -14 0 -25 -6 -25 -13 0 -7 -38 -52 -85 -101 -47 -50 -87
-101 -90 -116 -5 -21 -11 -27 -26 -23 -14 4 -19 0 -19 -14 0 -11 -6 -28 -14
-38 -10 -14 -11 -23 -3 -37 9 -13 7 -26 -6 -53 -9 -20 -17 -54 -17 -76 0 -75
-19 -124 -66 -170 -24 -24 -44 -50 -44 -58 0 -16 -38 -61 -52 -61 -5 0 -33
-16 -63 -35 -41 -26 -55 -41 -55 -58 0 -17 -9 -27 -35 -37 -19 -7 -37 -21 -41
-29 -8 -22 -73 -75 -82 -66 -4 3 1 12 11 19 21 16 23 38 2 29 -9 -3 -27 -26
-40 -52 -26 -51 -94 -121 -117 -121 -9 0 -21 -7 -28 -15 -7 -8 -21 -15 -32
-15 -11 0 -28 -5 -38 -10 -13 -7 -21 -7 -25 0 -3 5 -15 10 -26 10 -26 0 -19
-24 7 -26 10 -1 23 -2 28 -3 16 -2 -16 -31 -35 -31 -10 0 -40 -21 -66 -47 -31
-32 -61 -51 -88 -58 -31 -8 -41 -15 -43 -34 -3 -21 -7 -23 -43 -18 -37 5 -54
-5 -26 -16 12 -5 -17 -11 -41 -8 -7 1 -15 -6 -18 -16 -14 -44 -29 -62 -53 -68
-14 -3 -35 -19 -46 -36 -11 -17 -33 -37 -50 -46 -16 -9 -32 -19 -35 -23 -3 -4
-30 -24 -60 -44 -30 -21 -66 -52 -81 -68 l-25 -30 -45 21 c-31 15 -54 36 -77
71 -18 28 -40 50 -48 50 -10 0 -14 7 -12 22 2 13 9 22 17 20 7 -1 22 0 33 4
19 6 18 8 -11 26 -51 33 -41 53 45 93 42 19 88 35 101 35 14 0 42 13 62 29 47
37 95 61 121 61 11 0 32 11 46 25 14 14 31 25 38 25 8 0 19 6 25 14 7 8 24 17
38 21 15 3 38 15 51 26 14 10 37 19 52 19 15 0 35 9 45 20 12 14 25 18 42 14
19 -5 25 -2 30 16 6 21 7 22 19 5 14 -19 34 -13 34 11 0 8 6 14 13 14 8 0 22
9 33 21 15 17 27 20 60 15 43 -5 64 6 64 34 0 20 47 70 65 70 8 0 15 -4 15
-10 0 -23 27 -6 92 60 68 69 92 82 101 58 3 -10 10 -8 23 5 17 16 17 17 1 17
-10 0 -15 5 -12 10 9 14 -19 12 -33 -2 -7 -7 -12 -9 -12 -5 0 4 -8 3 -19 -2
-30 -16 -101 -30 -101 -20 0 5 14 12 30 16 43 8 47 23 7 23 -26 0 -39 -6 -51
-25 -9 -14 -14 -30 -11 -35 4 -6 -2 -13 -12 -17 -10 -4 -21 -11 -25 -17 -4 -6
-11 -7 -15 -2 -4 5 -2 11 5 13 18 7 15 21 -8 28 -11 3 -20 13 -20 22 0 12 -6
9 -24 -9 -34 -38 -39 -57 -14 -50 14 3 19 1 14 -6 -4 -7 -16 -12 -27 -12 -11
0 -22 -7 -25 -15 -4 -8 -12 -15 -19 -15 -7 0 -16 -7 -19 -16 -5 -12 -16 -15
-41 -12 -29 3 -35 1 -35 -14 0 -23 -29 -36 -40 -18 -7 11 -12 11 -22 2 -11 -9
-19 -8 -36 4 -26 18 -57 6 -65 -26 -4 -17 -2 -19 19 -14 15 4 24 2 24 -6 0 -6
-5 -8 -10 -5 -6 3 -22 -7 -36 -24 -14 -17 -33 -31 -42 -31 -10 0 -32 -9 -50
-20 -18 -11 -37 -20 -43 -20 -10 0 -100 -39 -152 -65 -37 -19 -50 -11 -42 27
6 23 4 29 -6 26 -8 -3 -14 -19 -14 -39 0 -43 -12 -61 -35 -54 -10 3 -21 1 -25
-5 -10 -17 -25 -11 -25 10 0 25 -19 26 -26 2 -11 -36 -22 -47 -48 -48 -14 -1
-34 -8 -44 -17 -17 -15 -133 -57 -158 -57 -6 0 -14 -7 -18 -15 -15 -40 -56 12
-68 90 -4 20 -19 23 -51 10 -13 -5 -17 -2 -17 14 0 12 -4 21 -10 21 -5 0 -10
5 -10 10 0 14 27 13 32 -2 3 -7 10 -8 17 -4 9 6 10 11 2 19 -14 14 -14 37 -1
37 5 0 12 -11 16 -25 7 -29 27 -29 32 0 4 18 -14 60 -35 83 -16 16 -17 39 -2
47 6 4 40 13 77 21 57 12 162 46 227 74 11 5 36 12 55 15 19 4 58 15 86 25 29
11 55 16 58 13 3 -4 16 3 29 14 25 24 45 29 70 18 11 -4 24 -2 35 7 21 18 71
40 97 44 46 6 147 33 158 42 14 11 108 35 114 29 2 -3 17 8 33 24 25 26 34 29
69 23 33 -5 41 -4 41 9 0 19 22 28 41 16 24 -15 46 -10 78 17 18 15 58 32 93
40 77 18 128 51 128 82 0 12 6 22 14 22 15 0 26 -42 26 -102 0 -37 -3 -40 -46
-58 -40 -18 -45 -23 -42 -47 2 -22 8 -27 23 -25 11 2 38 5 60 7 83 8 103 16
98 36 -4 13 0 19 11 19 9 0 16 4 16 9 0 6 -15 7 -34 4 l-34 -5 -4 57 c-1 31 1
59 5 62 5 3 0 11 -9 18 -16 11 -16 17 -5 58 7 25 10 51 6 57 -4 6 0 26 8 43 9
18 23 59 32 92 26 94 45 137 64 143 8 3 10 -4 5 -22 -9 -37 21 -35 41 4 19 36
19 40 0 40 -34 0 -11 54 50 114 25 25 98 51 103 36 2 -6 8 -10 14 -10 6 0 3 9
-7 20 -23 26 -13 52 18 45 19 -5 29 1 51 29 19 26 40 39 71 47 37 9 45 15 45
35 0 26 41 56 48 35 2 -6 13 -11 24 -11 15 0 19 5 15 20 -6 23 34 53 41 31 6
-17 24 -13 51 12 31 29 138 70 154 60 7 -4 33 -9 60 -10 86 -5 97 -8 92 -20
-2 -7 0 -13 5 -13 5 0 25 -13 43 -30 19 -16 37 -30 40 -30 13 0 -19 48 -38 56
-11 5 -22 20 -23 34 -2 13 -13 36 -24 49 -18 24 -18 26 -2 38 25 18 34 16 34
-7 0 -11 5 -20 10 -20 6 0 10 9 10 20 0 11 -4 20 -10 20 -19 0 -10 37 21 78
17 24 39 64 49 89 10 26 22 49 28 51 17 5 23 -30 8 -47 -19 -21 -14 -85 7 -89
18 -4 57 35 57 56 0 24 43 91 62 98 10 3 18 13 18 22 0 9 17 52 37 94 26 53
44 78 56 78 13 0 16 6 12 23 -7 25 1 48 43 121 15 27 36 50 46 52 10 1 21 5
24 9 4 3 16 3 27 0 11 -4 62 -16 113 -28z m-2084 -54 c-1 -34 -28 -42 -44 -14
-9 18 -8 21 9 21 11 0 23 5 26 10 9 15 11 12 9 -17z m592 -70 c3 -16 15 -54
26 -86 28 -79 15 -83 -20 -5 -39 87 -47 118 -27 118 8 0 17 -12 21 -27z m1514
-112 c-11 -21 -30 -29 -30 -12 0 12 31 43 37 37 3 -2 0 -14 -7 -25z m-1326
-77 c9 -24 7 -34 -8 -34 -22 0 -38 24 -24 38 16 16 25 15 32 -4z m16 -91 c-1
-27 -1 -27 -15 -9 -19 25 -19 36 0 36 10 0 15 -10 15 -27z m45 -43 c0 -8 -10
-16 -22 -18 -22 -3 -32 16 -16 32 12 11 38 2 38 -14z m1803 -305 c15 -72 10
-182 -9 -213 -8 -14 -32 -28 -55 -34 -25 -7 -40 -16 -37 -23 2 -7 -5 -15 -16
-18 -14 -3 -21 -13 -21 -29 0 -12 -4 -18 -8 -12 -4 5 -23 22 -42 36 -31 24
-37 25 -54 12 -11 -8 -29 -14 -40 -14 -19 -1 -19 -3 7 -23 34 -28 35 -41 2
-33 -14 4 -25 2 -25 -4 0 -14 -37 -12 -44 3 -3 8 -9 6 -20 -7 -20 -24 -31 -15
-17 12 14 26 14 62 1 62 -5 0 -10 -7 -10 -15 0 -11 -9 -13 -42 -9 -39 5 -44 3
-55 -20 -9 -21 -9 -26 3 -26 8 0 18 8 22 19 5 14 12 17 30 10 30 -11 28 -31
-8 -57 -36 -27 -38 -27 -42 -1 -3 20 -4 20 -33 -5 -32 -28 -35 -29 -59 -20
-18 7 -22 39 -6 49 22 14 8 23 -27 18 -54 -8 -59 -17 -21 -41 18 -12 29 -22
23 -23 -5 -1 -23 -3 -40 -5 -16 -1 -47 -5 -67 -9 -23 -4 -38 -3 -38 3 0 6 -9
8 -21 5 -13 -4 -27 2 -40 16 -41 43 -109 36 -81 -9 17 -27 16 -30 -13 -30 -16
0 -25 -6 -25 -16 0 -10 6 -14 15 -10 9 3 19 -3 25 -14 6 -11 17 -20 25 -20 9
0 15 -9 15 -22 0 -35 11 -45 60 -53 69 -11 292 -5 415 11 61 8 128 16 150 18
22 1 72 6 111 10 66 8 71 7 70 -10 -3 -26 -27 -74 -38 -74 -4 0 -7 -3 -6 -7 3
-10 -43 -87 -54 -91 -5 -2 -6 -8 -2 -13 3 -5 0 -9 -5 -9 -6 0 -11 -9 -11 -19
0 -16 -10 -21 -52 -28 -51 -8 -54 -8 -85 24 -29 29 -36 31 -90 30 -32 -2 -64
-6 -70 -10 -7 -5 -29 -5 -48 -1 -29 5 -33 9 -24 20 6 8 8 14 3 14 -11 0 -64
-65 -64 -79 0 -5 -18 -1 -40 10 -21 10 -44 19 -50 19 -15 0 -12 11 8 27 15 13
14 14 -15 9 -38 -6 -38 -7 -19 30 8 15 12 32 9 38 -4 6 -8 6 -11 -2 -6 -18
-63 -15 -84 5 -23 20 -96 23 -131 4 -32 -17 -42 -11 -33 24 4 15 13 25 25 25
21 0 44 23 34 33 -3 4 -14 7 -24 7 -30 0 -40 33 -30 97 5 33 5 70 0 87 -5 17
-9 35 -9 41 0 18 65 55 96 55 16 0 38 6 49 13 27 18 101 44 150 52 22 4 73 22
113 41 40 19 79 34 86 34 7 0 18 6 24 13 13 15 83 47 162 73 65 21 139 55 195
89 57 35 68 30 83 -40z m-1204 -178 c11 -8 17 -18 15 -24 -6 -15 -69 5 -69 22
0 19 30 19 54 2z m-2715 -44 c37 -33 40 -46 6 -37 -17 4 -27 1 -31 -9 -3 -9
-12 -13 -20 -10 -20 7 -17 20 6 26 26 7 25 19 -2 36 -19 12 -23 11 -35 -5 -8
-11 -11 -29 -9 -40 5 -17 1 -23 -18 -26 -31 -6 -38 16 -22 67 11 36 12 37 52
31 25 -3 54 -16 73 -33z m-59 -112 c0 -3 -8 -11 -19 -18 -16 -10 -27 -11 -60
-4 -2 1 1 7 7 14 10 12 72 19 72 8z m3800 -1 c0 -5 -7 -10 -15 -10 -8 0 -15 5
-15 10 0 6 7 10 15 10 8 0 15 -4 15 -10z m-3879 -117 c-9 -16 -10 -15 -11 8 0
14 3 29 8 33 12 12 14 -22 3 -41z m3389 -13 c0 -16 -80 -42 -121 -38 -35 2
-79 25 -79 41 0 1 45 3 100 3 55 1 100 -2 100 -6z m-2397 -127 c11 -11 -14
-33 -37 -32 -17 1 -17 2 -3 6 9 2 17 11 17 19 0 15 12 19 23 7z m2257 -95 c17
11 20 10 20 -7 0 -21 56 -61 84 -61 9 0 16 -4 16 -9 0 -5 10 -13 23 -17 12 -4
24 -9 27 -13 10 -12 157 -99 181 -106 13 -4 35 -16 48 -26 13 -11 28 -19 34
-19 5 0 25 -9 43 -21 24 -14 31 -24 24 -32 -28 -33 -75 -104 -78 -115 -1 -7
-10 -24 -18 -38 l-16 -24 -29 21 c-16 11 -29 25 -29 32 0 8 -3 8 -11 0 -8 -8
-9 -20 -1 -42 13 -38 3 -39 -28 -6 -13 14 -30 23 -38 20 -9 -3 -18 6 -25 26
-12 30 -18 31 -58 15 -10 -5 -19 -1 -22 8 -7 19 21 78 34 71 5 -4 9 -1 9 4 0
17 -18 13 -40 -9 -24 -24 -36 -25 -44 -5 -8 22 -36 18 -36 -4 0 -11 5 -23 10
-26 6 -4 8 -11 4 -16 -10 -17 -35 12 -28 34 3 11 7 25 9 31 1 6 5 19 10 29 10
24 3 29 -29 21 -27 -6 -33 -18 -16 -29 18 -11 10 -33 -14 -37 -32 -6 -60 15
-52 40 4 11 2 23 -4 27 -15 9 -12 45 3 45 21 0 27 -11 16 -31 -8 -16 -6 -19
11 -19 15 0 20 7 20 25 0 14 -5 25 -11 25 -8 0 -8 5 1 15 10 12 9 16 -4 21
-21 8 -75 -43 -76 -70 0 -15 -3 -16 -15 -6 -16 14 -20 40 -6 40 5 0 16 12 26
26 12 19 14 29 6 37 -8 8 -11 6 -11 -6 0 -19 -30 -24 -30 -4 -1 6 -23 23 -51
36 -28 13 -53 29 -55 36 -3 7 6 24 20 38 14 15 26 37 26 49 0 35 51 48 108 29
34 -13 46 -13 62 -3z m75 -18 c-3 -5 -11 -10 -16 -10 -6 0 -7 5 -4 10 3 6 11
10 16 10 6 0 7 -4 4 -10z m400 -43 c13 -10 15 -16 6 -21 -17 -11 -41 0 -41 19
0 19 11 19 35 2z m-70 -7 c3 -5 1 -10 -4 -10 -6 0 -11 5 -11 10 0 6 2 10 4 10
3 0 8 -4 11 -10z m-140 -10 c3 -5 -1 -10 -10 -10 -9 0 -13 5 -10 10 3 6 8 10
10 10 2 0 7 -4 10 -10z m118 -40 c4 -3 -13 -7 -38 -7 -32 0 -45 4 -45 14 0 11
9 12 38 7 20 -3 41 -10 45 -14z m-3617 -17 c4 -14 2 -34 -5 -44 -16 -27 -14
-52 4 -45 8 3 15 1 15 -3 0 -5 -7 -12 -16 -15 -20 -8 -51 8 -36 18 15 9 -6 56
-25 56 -8 0 -11 5 -8 10 3 6 14 10 25 10 13 0 17 5 13 20 -4 14 0 20 11 20 9
0 19 -12 22 -27z m3037 -51 c-3 -13 8 -29 34 -52 21 -18 43 -41 48 -50 10 -17
27 -37 156 -191 42 -51 70 -95 80 -126 12 -42 20 -51 60 -70 46 -22 85 -73 62
-80 -7 -2 -17 -20 -23 -39 -8 -22 -18 -34 -30 -34 -10 0 -28 -9 -41 -20 -24
-19 -24 -19 -2 -20 17 0 20 -5 16 -22 -3 -13 -16 -32 -29 -44 -13 -12 -21 -24
-17 -28 3 -3 -3 -6 -14 -6 -15 0 -22 8 -27 31 -7 37 -29 34 -36 -6 -5 -27 -6
-27 -20 -10 -11 13 -12 19 -3 22 8 3 1 26 -20 68 -25 50 -37 65 -54 65 -30 0
-40 20 -11 22 13 1 30 2 38 4 8 1 22 2 30 3 19 2 -15 24 -44 28 -41 7 -63 43
-26 43 13 0 20 7 20 20 0 16 -7 20 -30 20 -59 0 -118 22 -125 47 -7 29 -21 30
-28 2 -4 -13 -11 -20 -20 -16 -8 3 -20 2 -27 -3 -10 -6 -9 -14 4 -40 9 -18 16
-40 16 -49 0 -9 9 -29 20 -46 11 -16 37 -61 56 -100 20 -38 59 -113 87 -165
107 -203 114 -225 81 -252 -9 -7 -30 -26 -48 -42 -17 -17 -47 -35 -66 -42 -19
-6 -40 -21 -45 -32 -26 -49 -63 -72 -50 -31 7 21 5 22 -37 17 -33 -4 -51 -1
-68 12 -25 19 -20 40 9 40 27 0 43 24 39 62 -2 25 -8 33 -23 33 -28 0 -45 25
-32 46 5 9 7 24 3 34 -6 17 -7 17 -26 0 -20 -18 -21 -18 -34 1 -13 16 -13 19
0 22 17 4 18 14 2 30 -9 9 -15 9 -27 -1 -12 -10 -14 -9 -7 8 16 41 20 78 8 71
-7 -4 -12 -2 -12 3 0 6 5 11 11 11 6 0 9 10 7 23 -2 17 -9 21 -29 19 -34 -3
-47 33 -18 49 21 11 15 34 -6 25 -13 -5 -14 21 -3 76 2 8 -7 13 -19 13 -13 0
-23 4 -23 8 0 4 0 12 0 17 0 6 7 10 15 10 8 0 15 4 15 9 0 5 -7 11 -15 15 -18
7 -20 42 -2 49 16 7 -8 25 -46 34 -19 4 -29 13 -33 32 -3 14 -12 41 -20 60
-13 30 -13 33 0 28 23 -9 28 8 11 39 -9 19 -11 32 -4 40 7 8 3 13 -13 18 l-23
6 25 20 c14 11 35 20 47 20 12 0 27 9 33 21 9 17 14 18 26 8 13 -10 17 -10 25
2 5 8 9 17 9 22 0 20 31 3 51 -30 41 -68 79 -145 79 -163 0 -10 6 -23 14 -29
11 -9 15 -7 19 10 6 23 -17 79 -32 79 -22 0 -20 35 3 54 22 20 42 76 26 76
-12 0 -31 -27 -28 -40 4 -15 -13 -22 -27 -12 -6 4 -23 29 -39 55 -29 51 -28
82 5 92 10 4 24 15 29 26 7 12 21 19 41 19 26 0 29 3 24 21 -6 18 -5 19 12 8
16 -10 24 -7 48 15 33 31 45 33 38 8z m-1039 -278 c6 -22 1 -33 -24 -58 -17
-17 -49 -52 -72 -78 -22 -27 -47 -48 -54 -48 -20 0 -56 -39 -50 -55 2 -7 -2
-16 -10 -19 -8 -3 -14 -12 -14 -21 0 -8 -7 -15 -15 -15 -22 0 -112 -89 -151
-148 -49 -76 -125 -170 -175 -219 -61 -58 -99 -102 -99 -113 0 -6 -7 -10 -15
-10 -9 0 -18 -6 -21 -14 -3 -7 -27 -28 -55 -45 -27 -18 -54 -42 -61 -54 -16
-30 -118 -144 -145 -162 -20 -13 -22 -13 -17 0 5 11 -1 15 -20 15 -16 0 -26 6
-26 15 0 32 -17 13 -18 -20 -1 -34 10 -46 23 -25 10 16 25 1 25 -24 0 -40 -12
-37 -57 12 -23 26 -50 54 -58 63 -14 15 -13 17 15 22 33 7 38 22 16 46 -28 32
-24 71 8 71 16 0 27 7 31 20 10 31 37 26 29 -5 -4 -15 -2 -25 4 -25 15 0 44
107 37 131 -5 16 -3 20 12 19 38 -4 50 1 98 45 28 25 55 45 60 45 6 0 32 19
59 42 47 40 90 56 101 37 10 -16 22 -10 28 13 4 12 1 28 -5 35 -15 19 8 60 38
67 12 3 25 15 29 25 3 11 22 32 43 47 20 15 49 40 64 56 33 35 50 36 42 4 -9
-35 11 -40 40 -9 30 32 19 57 -21 47 -23 -6 -24 -5 -11 15 7 11 16 21 20 21 5
0 16 8 26 19 93 99 152 155 180 168 18 9 30 18 28 21 -7 6 23 62 33 62 5 0 11
-7 15 -15 8 -21 33 -19 46 5 15 28 37 25 44 -6z m563 -26 c11 -14 23 -112 27
-228 2 -52 -1 -82 -11 -96 -12 -18 -12 -24 0 -35 8 -9 13 -38 13 -79 0 -36 3
-110 8 -165 14 -182 14 -224 -2 -230 -12 -5 -12 -9 3 -25 17 -19 17 -22 0 -60
-17 -37 -26 -45 -49 -41 -16 3 -36 -22 -31 -39 5 -14 -20 -80 -30 -80 -2 0
-16 5 -31 10 -21 8 -29 7 -38 -5 -8 -11 -20 -14 -43 -9 -28 5 -32 11 -37 49
-5 28 -2 57 9 86 20 53 20 58 11 87 -4 12 -3 22 2 22 5 0 13 34 17 75 5 52 11
75 20 75 16 0 26 -25 19 -44 -9 -23 17 -30 37 -9 21 20 17 53 -5 53 -7 0 -22
13 -34 29 l-22 30 22 47 c17 40 19 53 9 79 -13 36 -4 126 13 137 6 4 19 -6 29
-25 10 -18 15 -23 11 -12 -4 11 -7 33 -7 48 0 23 -4 27 -21 25 -18 -3 -21 3
-24 36 -2 21 1 43 7 49 14 14 14 84 0 89 -7 2 -8 22 -3 57 7 55 33 91 65 91
10 0 21 5 24 10 9 14 31 13 42 -2z m-232 -40 c6 0 22 3 36 6 34 10 56 -15 42
-47 -22 -46 -35 -106 -30 -129 4 -15 1 -33 -8 -44 -7 -10 -11 -29 -8 -41 3
-13 2 -31 -3 -40 -4 -10 -9 -38 -10 -63 -2 -41 -7 -72 -35 -200 -5 -25 -11
-63 -13 -85 -2 -22 -10 -69 -16 -105 -7 -36 -16 -92 -21 -125 -24 -158 -21
-150 -56 -153 -28 -3 -33 -8 -39 -38 -8 -41 -19 -50 -34 -27 -8 13 -13 14 -16
6 -3 -7 -14 -13 -25 -13 -10 0 -19 -7 -19 -15 0 -8 -9 -15 -20 -15 -13 0 -20
7 -20 19 0 11 -5 23 -12 27 -7 4 -8 3 -4 -5 10 -15 -1 -61 -14 -61 -6 0 -10
15 -10 33 0 31 -4 35 -42 47 -58 18 -58 18 -51 36 5 13 8 13 15 2 7 -9 8 -4 4
15 -8 34 9 67 34 67 16 0 18 5 13 35 -4 23 -2 35 6 35 6 0 11 16 11 35 0 24 5
35 15 35 8 0 15 -7 15 -15 0 -25 17 -17 30 16 10 22 10 33 1 42 -6 6 -11 7
-11 3 0 -5 -6 -3 -14 3 -12 10 -11 17 4 49 10 20 24 37 32 38 56 4 55 3 25 28
-32 26 -28 56 8 56 25 0 50 24 41 38 -3 5 -17 7 -30 5 -24 -5 -24 -4 -15 33 6
22 15 57 21 79 5 22 13 76 17 119 7 72 10 81 39 105 18 14 32 34 32 44 0 23
-16 22 -23 -3 -3 -11 -13 -20 -22 -20 -15 0 -17 6 -12 36 8 46 9 47 42 34 25
-9 27 -9 15 5 -28 34 -53 14 -100 -81 -25 -50 -58 -107 -73 -127 -16 -21 -37
-58 -49 -83 -11 -26 -34 -65 -52 -88 -18 -23 -42 -65 -54 -93 -12 -29 -27 -55
-32 -58 -6 -3 -10 -16 -10 -28 0 -12 -14 -44 -30 -72 -42 -70 -45 -75 -71
-125 -12 -25 -29 -51 -36 -58 -21 -21 -61 -94 -68 -124 -4 -16 -13 -28 -21
-28 -21 0 -54 -41 -54 -67 0 -13 -5 -23 -11 -23 -6 0 -17 -7 -25 -15 -23 -23
-43 -19 -36 8 3 12 10 25 16 29 17 11 -32 10 -53 -2 -14 -7 -25 -4 -45 15 -15
14 -38 25 -52 25 -13 0 -24 4 -24 10 0 5 6 7 14 4 8 -3 17 -1 21 5 3 6 15 11
26 11 14 0 19 6 17 16 -4 20 -48 52 -48 35 0 -6 8 -11 17 -11 33 0 -21 -37
-60 -42 -34 -4 -37 -2 -37 20 0 18 4 23 15 18 22 -8 30 20 11 39 -9 9 -16 22
-16 29 0 18 27 39 40 31 16 -10 35 6 19 17 -10 6 -2 8 24 6 42 -4 47 3 15 24
l-22 15 24 31 c14 18 62 71 107 119 66 70 85 85 95 75 10 -10 10 -17 0 -32 -7
-11 -8 -21 -2 -25 14 -8 29 27 23 55 -3 18 3 33 19 51 13 13 22 32 20 42 -2 9
6 30 18 47 23 32 46 41 36 14 -3 -9 -9 -27 -12 -40 -8 -33 18 -32 45 2 18 23
19 28 6 38 -12 10 -12 18 3 63 22 66 50 104 82 108 14 1 33 6 43 10 16 7 17 9
2 32 -9 13 -13 33 -10 43 7 21 30 27 39 11 4 -5 19 -3 36 6 30 15 36 24 23 37
-12 11 -14 56 -3 56 5 0 10 8 10 18 0 32 78 92 120 92 13 0 24 8 27 20 8 31
57 38 143 22 41 -7 80 -14 85 -14z m783 -177 c-1 -16 3 -35 10 -44 9 -10 10
-17 2 -22 -16 -10 -30 4 -30 31 0 17 -5 24 -20 24 -11 0 -20 4 -20 8 0 14 24
32 43 32 14 0 18 -6 15 -29z m192 -291 c6 -11 8 -20 6 -20 -3 0 -10 9 -16 20
-6 11 -8 20 -6 20 3 0 10 -9 16 -20z m-1945 -10 c-3 -5 -11 -10 -16 -10 -6 0
-7 5 -4 10 3 6 11 10 16 10 6 0 7 -4 4 -10z m265 -91 c0 -11 -4 -17 -10 -14
-5 3 -10 13 -10 21 0 8 5 14 10 14 6 0 10 -9 10 -21z m1300 -215 c0 -14 -12
-19 -23 -8 -9 9 4 35 14 28 5 -3 9 -12 9 -20z m-1016 -329 c-4 -11 0 -15 16
-15 34 0 18 -24 -21 -31 -18 -4 -36 -6 -38 -4 -7 8 24 65 36 65 7 0 10 -7 7
-15z"/>
<path d="M1625 3606 c-13 -9 -19 -27 -20 -60 -2 -42 0 -47 19 -44 17 3 20 10
21 61 0 31 0 57 0 57 -1 0 -10 -6 -20 -14z"/>
<path d="M1516 3603 c-3 -3 -1 -14 5 -25 11 -20 29 -16 29 7 0 14 -24 27 -34
18z"/>
<path d="M1801 3597 c-1 -18 25 -77 35 -77 2 0 -1 10 -7 22 -6 12 -15 33 -20
47 -5 17 -8 20 -8 8z"/>
<path d="M1710 3590 c0 -5 7 -10 15 -10 8 0 15 5 15 10 0 6 -7 10 -15 10 -8 0
-15 -4 -15 -10z"/>
<path d="M2058 3585 c-4 -4 -1 -23 7 -42 8 -19 13 -39 10 -43 -6 -10 24 -35
32 -26 4 4 2 16 -5 26 -7 11 -12 27 -12 35 0 8 -4 15 -9 15 -5 0 -11 9 -13 21
-2 11 -6 18 -10 14z"/>
<path d="M1553 3553 c-20 -7 -15 -31 7 -43 16 -9 22 -8 27 5 7 19 -16 45 -34
38z"/>
<path d="M1656 3434 c-4 -9 -4 -19 -1 -22 2 -3 7 3 11 12 4 9 4 19 1 22 -2 3
-7 -3 -11 -12z"/>
<path d="M1950 3418 c0 -2 9 -11 20 -21 11 -9 20 -13 20 -7 0 5 -9 14 -20 20
-11 6 -20 9 -20 8z"/>
<path d="M1731 3345 l-20 -27 23 -42 c14 -25 31 -42 44 -44 12 -2 22 1 22 6 0
6 3 19 7 29 6 16 5 16 -9 5 -13 -10 -22 -11 -37 -2 -24 12 -24 14 -11 59 12
44 7 49 -19 16z"/>
<path d="M1965 3343 c-26 -7 -45 -22 -45 -37 0 -6 7 -3 14 7 7 9 20 17 29 17
9 0 19 5 22 10 3 6 5 9 3 9 -2 -1 -12 -4 -23 -6z"/>
<path d="M1160 3320 c0 -5 9 -10 20 -10 11 0 20 5 20 10 0 6 -9 10 -20 10 -11
0 -20 -4 -20 -10z"/>
<path d="M1050 3301 c0 -12 29 -35 36 -28 11 10 -5 37 -21 37 -8 0 -15 -4 -15
-9z"/>
<path d="M1810 3196 c-22 -26 -22 -29 -5 -22 11 5 30 11 43 13 12 3 25 10 28
15 4 6 -2 8 -14 4 -13 -5 -22 -2 -24 7 -2 9 -11 3 -28 -17z"/>
<path d="M830 3170 c0 -5 5 -10 10 -10 6 0 10 5 10 10 0 6 -4 10 -10 10 -5 0
-10 -4 -10 -10z"/>
<path d="M1842 3151 c-11 -6 -10 -11 3 -25 27 -27 51 -17 34 15 -11 21 -18 23
-37 10z"/>
<path d="M600 3110 c0 -5 5 -10 11 -10 5 0 7 5 4 10 -3 6 -8 10 -11 10 -2 0
-4 -4 -4 -10z"/>
<path d="M1307 3103 c-4 -3 -7 -11 -7 -17 0 -6 5 -5 12 2 6 6 9 14 7 17 -3 3
-9 2 -12 -2z"/>
<path d="M810 3075 c0 -8 6 -15 13 -15 8 0 30 -18 51 -40 20 -22 41 -40 47
-40 18 0 67 -42 63 -54 -3 -7 4 -20 15 -30 15 -14 23 -15 38 -6 16 10 32 4
105 -39 48 -28 93 -51 102 -51 18 0 46 -13 111 -51 78 -45 188 -99 203 -99 17
0 11 21 -9 31 -8 4 -45 26 -84 47 -152 86 -187 104 -212 106 -28 3 -48 36 -30
48 6 3 23 0 39 -8 33 -17 37 -5 8 21 -13 12 -20 14 -20 5 0 -7 -15 -1 -37 16
-30 23 -35 24 -29 8 13 -33 12 -38 -11 -42 -13 -2 -35 9 -57 28 -20 18 -36 29
-36 24 0 -4 -13 5 -30 21 -16 16 -30 25 -30 19 0 -5 -4 -4 -8 2 -4 6 -27 21
-52 33 -61 29 -83 43 -104 64 -21 21 -46 22 -46 2z m215 -165 c3 -5 -1 -10 -9
-10 -9 0 -16 5 -16 10 0 6 4 10 9 10 6 0 13 -4 16 -10z"/>
<path d="M1363 3073 c-7 -2 -13 -8 -13 -13 0 -10 38 -1 46 11 6 10 -13 11 -33
2z"/>
<path d="M1950 3076 c0 -2 7 -7 16 -10 8 -3 12 -2 9 4 -6 10 -25 14 -25 6z"/>
<path d="M2078 3053 c-24 -6 -23 -23 2 -23 11 0 20 7 20 15 0 8 -1 14 -2 14
-2 -1 -11 -3 -20 -6z"/>
<path d="M1945 3040 c3 -5 11 -10 16 -10 6 0 7 5 4 10 -3 6 -11 10 -16 10 -6
0 -7 -4 -4 -10z"/>
<path d="M1546 3024 c-4 -11 1 -24 14 -36 19 -18 20 -18 20 -1 0 10 -7 26 -14
36 -13 16 -14 16 -20 1z"/>
<path d="M2167 3014 c-3 -3 -3 -12 0 -20 3 -9 -2 -14 -13 -15 -18 0 -17 -1 1
-9 31 -13 35 -12 35 14 0 25 -12 40 -23 30z"/>
<path d="M1940 2990 c0 -5 7 -10 16 -10 8 0 12 5 9 10 -3 6 -10 10 -16 10 -5
0 -9 -4 -9 -10z"/>
<path d="M1670 2959 c0 -5 5 -7 10 -4 6 3 10 8 10 11 0 2 -4 4 -10 4 -5 0 -10
-5 -10 -11z"/>
<path d="M1625 2920 c-7 -22 10 -60 27 -60 6 0 8 9 4 23 -3 12 -6 30 -6 40 0
23 -17 22 -25 -3z"/>
<path d="M1782 2898 c3 -7 13 -15 22 -16 12 -3 17 1 14 10 -3 7 -13 15 -22 16
-12 3 -17 -1 -14 -10z"/>
<path d="M425 2839 c-9 -13 -5 -16 20 -21 12 -2 21 3 23 15 4 19 -32 25 -43 6z"/>
<path d="M1665 2840 c3 -5 8 -10 11 -10 2 0 4 5 4 10 0 6 -5 10 -11 10 -5 0
-7 -4 -4 -10z"/>
<path d="M1650 2822 c0 -5 14 -12 30 -14 33 -5 28 6 -7 17 -13 3 -23 2 -23 -3z"/>
<path d="M2370 2795 c0 -8 7 -15 15 -15 8 0 15 4 15 9 0 5 -7 11 -15 15 -9 3
-15 0 -15 -9z"/>
<path d="M730 2781 c0 -5 7 -11 15 -15 9 -3 15 0 15 9 0 8 -7 15 -15 15 -8 0
-15 -4 -15 -9z"/>
<path d="M2212 2764 c1 -9 9 -19 16 -22 9 -3 13 2 10 14 -1 9 -9 19 -16 22 -9
3 -13 -2 -10 -14z"/>
<path d="M1460 2756 c0 -9 5 -16 10 -16 6 0 10 4 10 9 0 6 -4 13 -10 16 -5 3
-10 -1 -10 -9z"/>
<path d="M642 2744 c4 -21 22 -23 26 -1 2 10 -3 17 -13 17 -10 0 -15 -6 -13
-16z"/>
<path d="M1765 2740 c4 -6 11 -8 16 -5 14 9 11 15 -7 15 -8 0 -12 -5 -9 -10z"/>
<path d="M730 2730 c0 -5 5 -10 11 -10 5 0 7 5 4 10 -3 6 -8 10 -11 10 -2 0
-4 -4 -4 -10z"/>
<path d="M854 2706 c-8 -8 -7 -15 2 -23 9 -9 15 -9 22 0 14 17 -9 38 -24 23z"/>
<path d="M1825 2690 c3 -5 13 -10 21 -10 8 0 12 5 9 10 -3 6 -13 10 -21 10 -8
0 -12 -4 -9 -10z"/>
<path d="M960 2665 c0 -9 9 -15 21 -15 18 0 19 2 9 15 -7 8 -16 15 -21 15 -5
0 -9 -7 -9 -15z"/>
<path d="M2147 2663 c-14 -13 -6 -24 28 -40 26 -12 38 -14 46 -6 15 15 3 33
-21 33 -10 0 -22 5 -25 10 -7 12 -19 13 -28 3z"/>
<path d="M1580 2635 c0 -16 30 -35 54 -35 27 0 18 15 -19 33 -30 14 -35 14
-35 2z"/>
<path d="M2267 2635 c6 -17 25 -15 31 3 2 7 -5 12 -17 12 -14 0 -19 -5 -14
-15z"/>
<path d="M1790 2625 c0 -8 5 -15 10 -15 6 0 10 7 10 15 0 8 -4 15 -10 15 -5 0
-10 -7 -10 -15z"/>
<path d="M1900 2631 c0 -9 30 -24 36 -18 2 1 -6 8 -16 15 -11 7 -20 8 -20 3z"/>
<path d="M1160 2611 c-17 -14 -20 -20 -10 -21 22 0 43 16 38 30 -2 8 -11 5
-28 -9z"/>
<path d="M2006 2602 c-3 -6 3 -12 15 -15 12 -3 19 -1 16 6 -5 15 -24 20 -31 9z"/>
<path d="M1330 2590 c0 -5 5 -10 11 -10 5 0 7 5 4 10 -3 6 -8 10 -11 10 -2 0
-4 -4 -4 -10z"/>
<path d="M1405 2590 c3 -5 8 -10 11 -10 2 0 4 5 4 10 0 6 -5 10 -11 10 -5 0
-7 -4 -4 -10z"/>
<path d="M1890 2565 c7 -8 17 -15 22 -15 6 0 5 7 -2 15 -7 8 -17 15 -22 15 -6
0 -5 -7 2 -15z"/>
<path d="M1498 2563 c-25 -6 -22 -33 3 -33 25 0 59 17 59 30 0 10 -31 11 -62
3z"/>
<path d="M1317 2554 c-11 -12 3 -24 29 -24 16 0 24 5 22 13 -5 13 -40 22 -51
11z"/>
<path d="M1416 2542 c-8 -13 5 -53 16 -50 5 2 9 7 9 11 -1 4 -1 16 -1 27 0 20
-14 27 -24 12z"/>
<path d="M1910 2525 c0 -2 16 -13 36 -24 32 -19 35 -19 32 -4 -2 10 -16 20
-36 24 -17 3 -32 5 -32 4z"/>
<path d="M1471 2474 c0 -11 3 -14 6 -6 3 7 2 16 -1 19 -3 4 -6 -2 -5 -13z"/>
<path d="M1554 2462 c4 -6 -2 -8 -16 -4 -21 5 -22 4 -9 -11 18 -23 54 -23 49
0 -2 9 -9 18 -17 21 -8 3 -11 0 -7 -6z"/>
<path d="M1810 2453 c0 -13 5 -23 10 -23 13 0 13 11 0 30 -8 12 -10 11 -10 -7z"/>
<path d="M1600 2405 c-7 -8 -10 -18 -7 -21 9 -10 48 7 44 19 -6 18 -23 19 -37
2z"/>
<path d="M321 2226 c-7 -9 -8 -17 -2 -20 5 -3 12 0 14 6 4 10 8 9 16 -2 12
-18 24 -9 15 14 -8 20 -28 21 -43 2z"/>
<path d="M618 2209 c-25 -27 -23 -29 20 -22 46 7 48 9 32 28 -16 19 -31 18
-52 -6z"/>
<path d="M1267 2211 c-3 -14 -1 -18 9 -14 8 3 14 11 14 19 0 21 -17 17 -23 -5z"/>
<path d="M750 2194 c0 -8 5 -12 10 -9 6 4 8 11 5 16 -9 14 -15 11 -15 -7z"/>
<path d="M1436 2201 c-4 -5 -2 -12 3 -16 6 -3 7 -13 4 -22 -4 -11 -3 -14 5 -9
14 9 16 42 3 51 -5 3 -12 1 -15 -4z"/>
<path d="M1633 2193 c-13 -2 -23 -7 -23 -11 0 -12 15 -29 28 -33 8 -3 1 -17
-21 -42 l-35 -37 63 0 c69 0 84 13 53 43 -17 16 -18 16 -18 -2 0 -23 -15 -35
-30 -26 -8 5 -7 12 1 22 7 8 13 22 14 31 1 10 5 27 9 40 8 23 5 24 -41 15z"/>
<path d="M816 2182 c-9 -15 12 -34 35 -30 l23 3 -26 17 c-15 10 -29 14 -32 10z"/>
<path d="M705 2170 c3 -5 13 -10 21 -10 8 0 14 5 14 10 0 6 -9 10 -21 10 -11
0 -17 -4 -14 -10z"/>
<path d="M905 2170 c-3 -5 1 -10 10 -10 9 0 13 5 10 10 -3 6 -8 10 -10 10 -2
0 -7 -4 -10 -10z"/>
<path d="M1520 2170 c-8 -5 -12 -12 -9 -15 4 -3 12 1 19 10 14 17 11 19 -10 5z"/>
<path d="M1280 2139 c0 -6 9 -13 20 -16 11 -3 20 -9 20 -14 0 -5 -4 -8 -9 -6
-17 4 -16 -16 1 -27 21 -13 32 -3 24 22 -8 23 -56 59 -56 41z"/>
<path d="M1550 2140 c0 -5 4 -10 9 -10 6 0 13 5 16 10 3 6 -1 10 -9 10 -9 0
-16 -4 -16 -10z"/>
<path d="M1380 2112 c-27 -25 -29 -30 -16 -41 13 -11 17 -9 26 13 5 15 17 29
25 32 16 7 21 24 6 24 -6 0 -24 -13 -41 -28z"/>
<path d="M1445 2109 c-9 -17 -14 -33 -12 -36 3 -2 23 -7 45 -10 35 -5 40 -3
45 18 5 18 1 29 -16 41 -31 25 -44 22 -62 -13z"/>
<path d="M1557 2102 c-19 -21 -22 -32 -8 -32 5 0 16 11 25 25 19 29 7 34 -17
7z"/>
<path d="M1780 2109 c0 -5 5 -7 10 -4 6 3 10 8 10 11 0 2 -4 4 -10 4 -5 0 -10
-5 -10 -11z"/>
<path d="M1735 2090 c3 -5 13 -10 21 -10 8 0 14 5 14 10 0 6 -9 10 -21 10 -11
0 -17 -4 -14 -10z"/>
<path d="M1630 2010 c0 -5 6 -10 14 -10 8 0 18 5 21 10 3 6 -3 10 -14 10 -12
0 -21 -4 -21 -10z"/>
<path d="M1258 1983 c6 -2 18 -2 25 0 6 3 1 5 -13 5 -14 0 -19 -2 -12 -5z"/>
<path d="M1398 1928 c-3 -22 -14 -26 -47 -17 -7 2 -15 -1 -18 -7 -2 -6 12 -14
34 -17 21 -4 45 -16 56 -29 l19 -23 -5 28 c-4 23 -1 27 13 22 23 -7 38 14 19
26 -8 4 -24 5 -38 2 -20 -5 -22 -3 -16 16 3 12 2 21 -4 21 -5 0 -11 -10 -13
-22z"/>
<path d="M1740 1905 c0 -17 39 -36 55 -27 5 3 2 8 -5 10 -8 3 -19 11 -23 18
-11 19 -27 18 -27 -1z"/>
<path d="M1058 1893 c7 -3 16 -2 19 1 4 3 -2 6 -13 5 -11 0 -14 -3 -6 -6z"/>
<path d="M1197 1883 c-14 -14 -6 -20 19 -15 19 3 22 7 12 13 -16 11 -23 11
-31 2z"/>
<path d="M1083 1851 c-8 -13 -19 -18 -33 -14 -27 7 -27 -27 1 -53 20 -18 21
-18 35 1 8 11 13 28 10 38 -3 13 2 17 21 17 15 0 23 5 21 13 -7 20 -42 19 -55
-2z"/>
<path d="M1260 1856 c0 -2 7 -7 16 -10 8 -3 12 -2 9 4 -6 10 -25 14 -25 6z"/>
<path d="M1156 1814 c-4 -9 -4 -19 -1 -22 6 -6 35 18 35 29 0 16 -28 10 -34
-7z"/>
<path d="M937 1778 c-15 -17 -25 -33 -22 -36 6 -6 65 48 65 60 0 15 -15 6 -43
-24z"/>
<path d="M713 1764 c-9 -24 10 -34 31 -18 20 14 16 26 -10 30 -8 1 -18 -4 -21
-12z"/>
<path d="M795 1770 c4 -6 11 -8 16 -5 14 9 11 15 -7 15 -8 0 -12 -5 -9 -10z"/>
<path d="M985 1770 c-3 -5 1 -10 10 -10 9 0 13 5 10 10 -3 6 -8 10 -10 10 -2
0 -7 -4 -10 -10z"/>
<path d="M820 1752 c0 -6 -8 -13 -17 -15 -16 -4 -16 -5 -1 -6 18 -1 34 16 24
26 -3 4 -6 1 -6 -5z"/>
<path d="M380 1672 c0 -5 7 -9 15 -9 8 0 15 4 15 9 0 4 -7 8 -15 8 -8 0 -15
-4 -15 -8z"/>
<path d="M440 1670 c0 -13 11 -13 30 0 12 8 11 10 -7 10 -13 0 -23 -4 -23 -10z"/>
<path d="M2395 3660 c-3 -5 -1 -10 4 -10 6 0 11 5 11 10 0 6 -2 10 -4 10 -3 0
-8 -4 -11 -10z"/>
<path d="M2540 3630 c-8 -5 -11 -12 -8 -16 10 -9 38 3 38 16 0 12 -10 13 -30
0z"/>
<path d="M2474 3605 c3 -9 6 -21 6 -26 0 -12 31 -11 50 1 19 12 5 25 -34 34
-24 6 -27 4 -22 -9z"/>
<path d="M2650 3475 c-7 -9 -10 -18 -7 -22 8 -7 37 15 37 28 0 14 -16 11 -30
-6z"/>
<path d="M2465 3330 c-8 -13 3 -30 20 -30 14 0 27 24 18 34 -10 9 -31 7 -38
-4z"/>
<path d="M2410 3321 c0 -5 5 -13 10 -16 6 -3 10 -2 10 4 0 5 -4 13 -10 16 -5
3 -10 2 -10 -4z"/>
<path d="M2635 3279 c-11 -17 1 -21 15 -4 8 9 8 15 2 15 -6 0 -14 -5 -17 -11z"/>
<path d="M2460 3258 c0 -19 2 -20 10 -8 13 19 13 30 0 30 -5 0 -10 -10 -10
-22z"/>
<path d="M2491 3124 c0 -11 3 -14 6 -6 3 7 2 16 -1 19 -3 4 -6 -2 -5 -13z"/>
<path d="M2471 3062 c-17 -31 -13 -40 5 -14 9 13 14 26 11 29 -3 2 -10 -4 -16
-15z"/>
<path d="M2822 3236 c-12 -28 -5 -41 15 -25 14 13 18 49 5 49 -5 0 -14 -11
-20 -24z"/>
<path d="M2760 2979 c0 -5 5 -7 10 -4 6 3 10 8 10 11 0 2 -4 4 -10 4 -5 0 -10
-5 -10 -11z"/>
<path d="M3320 3260 c0 -5 5 -10 10 -10 6 0 10 5 10 10 0 6 -4 10 -10 10 -5 0
-10 -4 -10 -10z"/>
<path d="M3035 2781 c-3 -5 -1 -12 5 -16 5 -3 10 1 10 9 0 18 -6 21 -15 7z"/>
<path d="M3305 2780 c3 -5 8 -10 11 -10 2 0 4 5 4 10 0 6 -5 10 -11 10 -5 0
-7 -4 -4 -10z"/>
<path d="M2818 2693 c6 -2 18 -2 25 0 6 3 1 5 -13 5 -14 0 -19 -2 -12 -5z"/>
<path d="M3480 2665 c0 -9 5 -15 11 -13 6 2 11 8 11 13 0 5 -5 11 -11 13 -6 2
-11 -4 -11 -13z"/>
<path d="M2800 2608 c0 -10 -4 -18 -10 -18 -5 0 -10 -7 -10 -15 0 -19 7 -19
26 0 11 11 12 19 5 32 -10 17 -10 17 -11 1z"/>
<path d="M3040 2600 c0 -11 5 -20 10 -20 6 0 10 4 10 10 0 5 8 7 18 4 14 -5
14 -3 -2 10 -26 21 -36 20 -36 -4z"/>
<path d="M3355 2599 c-4 -6 -5 -13 -2 -16 7 -7 27 6 27 18 0 12 -17 12 -25 -2z"/>
<path d="M3057 2530 c-4 -15 0 -20 15 -20 13 0 18 6 16 17 -5 24 -25 27 -31 3z"/>
<path d="M3148 2524 c-5 -4 -8 -18 -8 -31 0 -17 6 -23 21 -23 16 0 19 3 11 13
-5 6 -11 20 -13 30 -2 11 -7 15 -11 11z"/>
<path d="M3040 2459 c0 -5 9 -9 20 -9 11 0 20 4 20 8 0 4 -9 8 -20 9 -11 1
-20 -2 -20 -8z"/>
<path d="M2167 2413 c-4 -3 -7 -15 -7 -26 0 -16 3 -17 15 -7 8 7 15 19 15 26
0 15 -12 19 -23 7z"/>
<path d="M3030 2340 c0 -5 5 -10 10 -10 6 0 10 5 10 10 0 6 -4 10 -10 10 -5 0
-10 -4 -10 -10z"/>
<path d="M2961 2284 c0 -11 3 -14 6 -6 3 7 2 16 -1 19 -3 4 -6 -2 -5 -13z"/>
<path d="M2946 2233 c-6 -14 -5 -15 5 -6 7 7 10 15 7 18 -3 3 -9 -2 -12 -12z"/>
<path d="M2052 2208 c-7 -7 -12 -20 -12 -29 0 -9 -7 -30 -15 -45 -17 -33 -20
-94 -4 -94 5 0 7 4 4 10 -3 5 -1 19 5 31 13 24 42 130 37 135 -2 2 -9 -2 -15
-8z"/>
<path d="M2105 2099 c-11 -17 1 -21 15 -4 8 9 8 15 2 15 -6 0 -14 -5 -17 -11z"/>
<path d="M2782 1998 c5 -15 28 -18 29 -3 0 6 -7 12 -17 13 -10 3 -15 -1 -12
-10z"/>
<path d="M2003 1835 c-3 -9 -3 -19 1 -22 3 -4 6 -1 6 5 0 7 9 12 20 12 11 0
20 5 20 10 0 16 -40 11 -47 -5z"/>
<path d="M1770 1745 c-12 -15 -5 -55 11 -55 5 0 9 4 9 9 0 5 7 17 17 26 14 14
14 18 2 26 -19 12 -25 11 -39 -6z"/>
<path d="M2520 1726 c0 -14 5 -26 10 -26 6 0 10 9 10 19 0 11 -4 23 -10 26 -6
4 -10 -5 -10 -19z"/>
<path d="M1615 1670 c-3 -5 1 -10 9 -10 8 0 18 5 21 10 3 6 -1 10 -9 10 -8 0
-18 -4 -21 -10z"/>
<path d="M1340 1554 c0 -8 6 -14 14 -14 8 0 21 -3 30 -6 9 -3 16 -2 16 3 0 5
-13 14 -30 20 -25 9 -30 9 -30 -3z"/>
<path d="M1123 1430 c-29 -28 -53 -55 -53 -61 0 -9 18 3 78 52 7 5 10 14 7 19
-3 6 1 7 10 4 16 -6 45 11 45 27 0 23 -40 4 -87 -41z"/>
<path d="M1683 1473 c-7 -3 -13 -12 -13 -21 0 -15 2 -15 17 1 18 18 16 27 -4
20z"/>
<path d="M1602 1421 c-18 -3 -33 -9 -32 -13 0 -5 2 -8 5 -8 3 0 13 0 23 0 10
0 27 7 38 15 20 15 18 16 -34 6z"/>
<path d="M988 1363 c7 -3 16 -2 19 1 4 3 -2 6 -13 5 -11 0 -14 -3 -6 -6z"/>
<path d="M1410 1270 c0 -5 5 -10 10 -10 6 0 10 5 10 10 0 6 -4 10 -10 10 -5 0
-10 -4 -10 -10z"/>
<path d="M710 1250 c0 -5 5 -10 10 -10 6 0 10 5 10 10 0 6 -4 10 -10 10 -5 0
-10 -4 -10 -10z"/>
<path d="M530 1181 c0 -17 15 -19 28 -5 11 12 9 14 -8 14 -11 0 -20 -4 -20 -9z"/>
<path d="M462 1148 c2 -13 9 -23 17 -23 23 0 23 19 0 33 -19 12 -20 11 -17
-10z"/>
<path d="M1100 1034 c0 -8 5 -12 10 -9 6 3 10 10 10 16 0 5 -4 9 -10 9 -5 0
-10 -7 -10 -16z"/>
<path d="M825 960 c4 -6 11 -8 16 -5 14 9 11 15 -7 15 -8 0 -12 -5 -9 -10z"/>
<path d="M691 856 c-20 -24 19 -30 41 -6 19 20 18 20 -5 20 -14 0 -30 -6 -36
-14z"/>
<path d="M4000 2460 c0 -5 5 -10 10 -10 6 0 10 5 10 10 0 6 -4 10 -10 10 -5 0
-10 -4 -10 -10z"/>
<path d="M3617 2413 c-7 -6 21 -32 36 -33 4 0 3 9 -3 20 -11 21 -22 25 -33 13z"/>
<path d="M3386 2366 c-21 -33 -2 -45 24 -14 23 28 25 38 6 38 -7 0 -21 -11
-30 -24z"/>
<path d="M3468 2353 c-27 -7 -22 -23 7 -23 16 0 25 6 25 15 0 15 -2 16 -32 8z"/>
<path d="M3600 2350 c0 -5 7 -7 15 -4 8 4 15 8 15 10 0 2 -7 4 -15 4 -8 0 -15
-4 -15 -10z"/>
<path d="M3522 2088 c3 -7 19 -13 36 -13 36 -1 30 9 -11 19 -21 5 -28 3 -25
-6z"/>
<path d="M3571 2033 c-19 -8 -51 -36 -51 -45 0 -5 7 -8 15 -8 8 0 15 5 15 10
0 6 11 16 25 22 37 17 33 36 -4 21z"/>
<path d="M3688 2033 c7 -3 16 -2 19 1 4 3 -2 6 -13 5 -11 0 -14 -3 -6 -6z"/>
<path d="M3235 2039 c-4 -6 -4 -13 -1 -16 8 -8 36 5 36 17 0 13 -27 13 -35 -1z"/>
<path d="M3350 1910 c0 -5 7 -10 16 -10 8 0 12 5 9 10 -3 6 -10 10 -16 10 -5
0 -9 -4 -9 -10z"/>
<path d="M3436 1821 c-3 -5 0 -11 8 -14 15 -6 26 1 26 15 0 11 -27 10 -34 -1z"/>
<path d="M3715 1760 c-3 -6 5 -10 19 -10 14 0 28 5 31 10 3 6 -5 10 -19 10
-14 0 -28 -4 -31 -10z"/>
<path d="M3496 1743 c-11 -11 -6 -23 9 -23 8 0 15 4 15 9 0 13 -16 22 -24 14z"/>
<path d="M3621 1633 c33 -36 34 -37 37 -15 5 38 -5 52 -39 52 l-31 0 33 -37z"/>
<path d="M3007 1769 c-20 -12 -25 -73 -5 -67 10 4 31 68 25 75 -1 1 -10 -3
-20 -8z"/>
<path d="M3220 1710 c0 -5 5 -10 10 -10 6 0 10 5 10 10 0 6 -4 10 -10 10 -5 0
-10 -4 -10 -10z"/>
<path d="M2836 1475 c-3 -8 -1 -15 4 -15 13 0 22 18 11 24 -5 3 -11 -1 -15 -9z"/>
<path d="M3088 1478 c9 -9 15 -9 24 0 9 9 7 12 -12 12 -19 0 -21 -3 -12 -12z"/>
<path d="M3265 1469 c-10 -15 3 -25 16 -12 7 7 7 13 1 17 -6 3 -14 1 -17 -5z"/>
<path d="M2903 1453 c-18 -6 -16 -33 1 -33 19 0 31 19 20 30 -5 4 -15 5 -21 3z"/>
<path d="M2901 1311 c-12 -8 -12 -12 2 -25 22 -22 27 -20 27 9 0 27 -6 30 -29
16z"/>
<path d="M3390 1232 c0 -4 11 -19 25 -32 14 -13 24 -29 21 -36 -5 -14 13 -34
31 -34 21 0 15 34 -9 55 -49 43 -68 56 -68 47z"/>
<path d="M2940 1210 c0 -5 7 -10 15 -10 8 0 15 5 15 10 0 6 -7 10 -15 10 -8 0
-15 -4 -15 -10z"/>
<path d="M2950 1134 c0 -8 9 -14 20 -14 11 0 20 4 20 9 0 5 -9 11 -20 14 -13
3 -20 0 -20 -9z"/>
<path d="M2968 1081 c8 -4 13 -11 13 -15 -1 -3 1 -6 4 -6 3 0 5 2 5 5 0 3 0
10 0 15 0 6 -8 10 -17 10 -14 0 -15 -2 -5 -9z"/>
<path d="M2990 993 c0 -10 7 -27 15 -37 13 -17 15 -18 15 -3 0 9 5 17 10 17 6
0 10 9 10 20 0 15 -7 20 -25 20 -17 0 -25 -5 -25 -17z"/>
<path d="M3033 935 c-8 -9 -9 -16 -3 -20 15 -9 52 5 47 18 -6 18 -30 19 -44 2z"/>
<path d="M3246 934 c-9 -24 -8 -25 13 -12 11 7 17 16 15 20 -8 13 -21 9 -28
-8z"/>
<path d="M1896 1455 c-3 -8 -2 -15 3 -15 5 0 14 7 21 15 10 12 10 15 -3 15 -8
0 -17 -7 -21 -15z"/>
<path d="M1608 1133 c-21 -5 -24 -23 -4 -23 22 0 46 11 46 21 0 9 -13 10 -42
2z"/>
<path d="M1530 1064 c0 -17 22 -14 28 4 2 7 -3 12 -12 12 -9 0 -16 -7 -16 -16z"/>
<path d="M1305 887 c-4 -10 -5 -21 -1 -24 10 -10 18 4 13 24 -4 17 -4 17 -12
0z"/>
<path d="M1196 795 c-3 -9 0 -15 9 -15 16 0 20 16 6 24 -5 3 -11 -1 -15 -9z"/>
<path d="M2637 1514 c-10 -10 -9 -44 2 -44 13 0 23 32 13 42 -5 5 -11 5 -15 2z"/>
<path d="M2643 1330 c-15 -6 -21 -15 -17 -25 3 -8 9 -15 13 -15 12 1 41 27 41
39 0 13 -7 13 -37 1z"/>
<path d="M2655 1230 c-3 -5 -2 -10 4 -10 5 0 13 5 16 10 3 6 2 10 -4 10 -5 0
-13 -4 -16 -10z"/>
<path d="M2637 1130 c-3 -11 -2 -22 3 -25 11 -7 33 22 25 35 -10 16 -22 12
-28 -10z"/>
<path d="M2566 972 c-2 -4 -1 -14 5 -22 7 -12 9 -10 9 8 0 23 -5 28 -14 14z"/>
<path d="M2550 772 c0 -5 7 -13 16 -16 10 -4 14 -1 12 6 -5 15 -28 23 -28 10z"/>
<path d="M2536 704 c-4 -9 -4 -19 -1 -22 2 -3 7 3 11 12 4 9 4 19 1 22 -2 3
-7 -3 -11 -12z"/>
<path d="M2585 549 c-4 -6 -14 -8 -22 -5 -18 7 -65 -23 -56 -37 4 -6 10 -4 17
5 10 14 17 14 51 2 22 -7 41 -12 43 -10 1 2 0 15 -4 30 -6 27 -18 33 -29 15z"/>
<path d="M2126 1396 c-7 -28 3 -35 20 -12 18 25 18 33 0 33 -8 0 -17 -10 -20
-21z"/>
<path d="M2425 1396 c-16 -12 -17 -16 -6 -30 7 -9 19 -16 26 -16 15 0 47 45
38 54 -11 10 -38 7 -58 -8z"/>
<path d="M2430 1296 c0 -9 7 -12 20 -9 11 3 17 9 14 14 -8 14 -34 10 -34 -5z"/>
<path d="M1920 1155 c-8 -9 -8 -15 -2 -15 12 0 26 19 19 26 -2 2 -10 -2 -17
-11z"/>
<path d="M2260 1069 c0 -11 4 -18 10 -14 5 3 7 12 3 20 -7 21 -13 19 -13 -6z"/>
<path d="M1850 945 c-8 -9 -8 -15 -2 -15 12 0 26 19 19 26 -2 2 -10 -2 -17
-11z"/>
<path d="M1927 900 c-3 -11 -1 -20 4 -20 5 0 9 9 9 20 0 11 -2 20 -4 20 -2 0
-6 -9 -9 -20z"/>
<path d="M1650 796 c0 -8 -6 -16 -12 -19 -10 -4 -10 -7 0 -18 11 -12 14 -12
22 1 13 20 13 50 0 50 -5 0 -10 -6 -10 -14z"/>
<path d="M1760 716 c0 -11 8 -16 28 -15 15 0 21 3 12 6 -8 3 -21 10 -27 16 -9
7 -13 5 -13 -7z"/>
<path d="M1564 696 c-10 -8 -15 -18 -11 -22 4 -4 15 0 24 9 22 21 12 31 -13
13z"/>
<path d="M2160 655 c7 -9 15 -13 17 -11 7 7 -7 26 -19 26 -6 0 -6 -6 2 -15z"/>
<path d="M1530 645 c-8 -9 -8 -15 -2 -15 12 0 26 19 19 26 -2 2 -10 -2 -17
-11z"/>
<path d="M2260 599 c0 -5 5 -7 10 -4 6 3 10 8 10 11 0 2 -4 4 -10 4 -5 0 -10
-5 -10 -11z"/>
<path d="M2070 552 c0 -16 32 -52 46 -52 23 0 16 28 -8 32 -13 2 -22 9 -20 16
1 6 -2 12 -8 12 -5 0 -10 -3 -10 -8z"/>
<path d="M1564 516 c-3 -9 -11 -13 -17 -9 -6 4 -7 1 -1 -8 4 -8 8 -25 7 -39
l-2 -25 8 25 c5 18 14 24 30 22 18 -2 22 2 19 20 -4 27 -35 36 -44 14z"/>
<path d="M1620 445 c0 -17 23 -45 37 -45 4 0 8 11 8 25 0 14 -3 25 -7 25 -3 0
-13 3 -22 6 -11 4 -16 1 -16 -11z"/>
</g>
</svg>
